<svg width="131" height="40" viewBox="0 0 131 40" fill="none" xmlns="http://www.w3.org/2000/svg">
<path d="M120.568 0.00013H10.4379C10.0365 0.00013 9.63985 0.000129999 9.23948 0.00212999C8.90433 0.00412999 8.57185 0.00993997 8.23347 0.01483C7.49838 0.0227317 6.76501 0.081806 6.03974 0.191539C5.31549 0.303662 4.61393 0.515044 3.95879 0.818537C3.30445 1.1246 2.70655 1.52229 2.1868 1.99719C1.66432 2.47076 1.2288 3.01814 0.896968 3.61828C0.564225 4.21723 0.333499 4.85905 0.212761 5.52159C0.0908747 6.18329 0.0252865 6.85263 0.0165852 7.52359C0.00642607 7.83018 0.00535324 8.1378 0 8.44444V31.5586C0.00535324 31.8691 0.00642607 32.1699 0.0165852 32.4805C0.0252892 33.1514 0.0908774 33.8207 0.212761 34.4824C0.333166 35.1453 0.563905 35.7875 0.896968 36.3867C1.22864 36.9849 1.66423 37.5301 2.1868 38.001C2.70458 38.478 3.30286 38.876 3.95879 39.1797C4.61393 39.484 5.31541 39.6967 6.03974 39.8105C6.76513 39.9194 7.49843 39.9785 8.23347 39.9873C8.57185 39.9941 8.90433 39.998 9.23948 39.998C9.63984 40 10.0365 40 10.4379 40H120.568C120.961 40 121.361 40 121.755 39.998C122.088 39.998 122.43 39.9941 122.764 39.9873C123.498 39.9789 124.229 39.9198 124.953 39.8105C125.68 39.6959 126.384 39.4833 127.042 39.1797C127.698 38.8758 128.295 38.4779 128.813 38.001C129.334 37.5282 129.77 36.9835 130.106 36.3867C130.437 35.7871 130.665 35.145 130.784 34.4824C130.906 33.8207 130.974 33.1515 130.987 32.4805C130.991 32.1699 130.991 31.8691 130.991 31.5586C131 31.1953 131 30.834 131 30.4648V9.53623C131 9.17002 131 8.80674 130.991 8.44444C130.991 8.1378 130.991 7.83018 130.987 7.52355C130.974 6.85253 130.906 6.18335 130.784 5.52155C130.665 4.8594 130.437 4.21762 130.106 3.61824C129.431 2.41532 128.359 1.43615 127.042 0.818447C126.384 0.515696 125.68 0.304369 124.953 0.191449C124.23 0.0812325 123.498 0.0221377 122.764 0.01469C122.43 0.00980997 122.088 0.00394999 121.755 0.00199999C121.361 0 120.961 0 120.568 0V0.00013Z" fill="white"/>
<path d="M9.28342 38.998C8.95011 38.998 8.62484 38.9941 8.29414 38.9874C7.60907 38.9793 6.9256 38.9251 6.24934 38.8254C5.61876 38.7267 5.0079 38.5433 4.4369 38.2811C3.87114 38.021 3.35512 37.68 2.90861 37.2712C2.45564 36.8671 2.07852 36.3985 1.79219 35.8839C1.50272 35.3659 1.30238 34.8107 1.19816 34.2376C1.08562 33.6218 1.02473 32.9991 1.01602 32.3749C1.00908 32.1654 1 31.4679 1 31.4679V8.51947C1 8.51947 1.00967 7.83262 1.01607 7.63083C1.02441 7.00764 1.08495 6.38594 1.19716 5.77109C1.30157 5.19642 1.50206 4.63961 1.79169 4.11994C2.07696 3.60566 2.45199 3.13669 2.90223 2.7312C3.35197 2.32186 3.86964 1.97911 4.43637 1.71547C5.00605 1.45408 5.61576 1.27193 6.24506 1.17511C6.92355 1.07434 7.60939 1.01986 8.29684 1.01213L9.28396 1H121.711L122.71 1.01262C123.391 1.01997 124.07 1.07396 124.743 1.17414C125.378 1.27217 125.994 1.45559 126.571 1.71838C127.706 2.2497 128.63 3.0903 129.213 4.12236C129.498 4.63845 129.695 5.19072 129.798 5.76042C129.912 6.38031 129.975 7.0069 129.988 7.6352C129.991 7.91653 129.991 8.21873 129.991 8.51947C130 8.892 130 9.24658 130 9.60407V30.3949C130 30.7558 130 31.1079 129.991 31.463C129.991 31.786 129.991 32.082 129.987 32.3866C129.974 33.0036 129.912 33.619 129.8 34.2278C129.698 34.8051 129.499 35.3646 129.209 35.8868C128.921 36.3959 128.546 36.8605 128.098 37.2634C127.651 37.6745 127.134 38.0175 126.567 38.2792C125.993 38.5434 125.378 38.7275 124.743 38.8254C124.066 38.9257 123.383 38.9798 122.698 38.9874C122.377 38.9941 122.042 38.998 121.716 38.998L120.53 39L9.28342 38.998Z" fill="white"/>
<path fill-rule="evenodd" clip-rule="evenodd" d="M79.6792 29.0762C78.0444 29.0762 76.8481 28.2676 76.7104 27.0362L74.8081 27.0361C74.9282 29.2822 76.7876 30.7031 79.5415 30.7031C82.4848 30.7031 84.3354 29.248 84.3354 26.9248C84.3354 25.1084 83.2768 24.0849 80.729 23.4824L79.3608 23.1465C77.7602 22.751 77.1059 22.2344 77.1059 21.3565C77.1059 20.2549 78.1303 19.4981 79.6274 19.4981C81.1245 19.4981 82.1489 20.2461 82.2612 21.4854H84.1372C84.0767 19.3428 82.2778 17.8711 79.6538 17.8711C77.0024 17.8711 75.1353 19.3428 75.1353 21.4854C75.1353 23.2158 76.1939 24.2822 78.4741 24.833L80.0835 25.2207C81.6929 25.6162 82.3726 26.1934 82.3726 27.1572C82.3726 28.2676 81.2456 29.0762 79.6792 29.0762ZM47.3022 27.1397H42.5688L41.4321 30.4962H39.4272L43.9106 18.0782H45.9936L50.477 30.4962H48.438L47.3022 27.1397ZM43.0591 25.5909H46.8111L44.9615 20.1436H44.9097L43.0591 25.5909ZM56.3813 30.5909C58.6538 30.5909 60.1597 28.7833 60.1597 25.9698C60.1597 23.1641 58.645 21.3477 56.3472 21.3477C55.1648 21.3096 54.0572 21.9245 53.4644 22.9483H53.4302V21.4424H51.6313V33.4913H53.4897V29.0069H53.5327C54.1003 30.0371 55.2067 30.6523 56.3813 30.5909ZM58.2495 25.9698C58.2495 24.1368 57.3022 22.9317 55.8569 22.9317C54.437 22.9317 53.4819 24.1622 53.4819 25.9698C53.4819 27.794 54.437 29.0157 55.8569 29.0157C57.3022 29.0157 58.2495 27.8194 58.2495 25.9698ZM66.3462 30.5909C68.6186 30.5909 70.1245 28.7833 70.1245 25.9698C70.1245 23.1641 68.6099 21.3477 66.312 21.3477C65.1296 21.3096 64.022 21.9245 63.4292 22.9483H63.395V21.4424H61.5962V33.4913H63.4546V29.0069H63.4976C64.0651 30.0371 65.1716 30.6523 66.3462 30.5909ZM68.2143 25.9698C68.2143 24.1368 67.2671 22.9317 65.8218 22.9317C64.4018 22.9317 63.4468 24.1622 63.4468 25.9698C63.4468 27.794 64.4018 29.0157 65.8218 29.0157C67.2671 29.0157 68.2144 27.8194 68.2143 25.9698ZM88.3462 19.2999V21.4424H90.0679V22.9141H88.3462V27.9053C88.3462 28.6807 88.6909 29.042 89.4477 29.042C89.6521 29.0385 89.8562 29.0241 90.0591 28.999V30.4619C89.7188 30.5255 89.3729 30.5543 89.0268 30.5479C87.1938 30.5479 86.479 29.8594 86.479 28.1035V22.9141H85.1626V21.4424H86.479V19.2999H88.3462ZM95.3589 21.3311C92.7427 21.3311 91.065 23.1212 91.065 25.9698C91.065 28.8262 92.7261 30.6085 95.3589 30.6085C97.9927 30.6085 99.6538 28.8262 99.6538 25.9698C99.6538 23.1211 97.9839 21.3311 95.3589 21.3311ZM97.7603 25.9698C97.7603 24.0157 96.8648 22.8624 95.3589 22.8624C93.8531 22.8624 92.9585 24.0245 92.9585 25.9698C92.9585 27.9317 93.8531 29.0762 95.3589 29.0762C96.8648 29.0762 97.7602 27.9317 97.7602 25.9698H97.7603ZM102.958 21.4424H101.186L101.186 30.4961H103.044V25.126C102.983 24.5827 103.161 24.0395 103.534 23.6391C103.906 23.2386 104.435 23.0208 104.981 23.043C105.264 23.0348 105.546 23.0727 105.816 23.1553V21.417C105.607 21.3702 105.393 21.3469 105.179 21.3477C104.158 21.3087 103.249 21.9914 103.001 22.9834H102.958V21.4424ZM114.384 27.837C114.134 29.4805 112.534 30.6084 110.486 30.6084C107.852 30.6084 106.217 28.8438 106.217 26.0127C106.217 23.1729 107.861 21.3311 110.408 21.3311C112.913 21.3311 114.488 23.0518 114.488 25.7969V26.4336H108.093V26.5459C108.034 27.22 108.266 27.8872 108.732 28.3778C109.198 28.8685 109.853 29.1353 110.529 29.1104C111.431 29.1949 112.281 28.677 112.62 27.837L114.384 27.837ZM112.628 25.1348H108.102C108.1 24.5236 108.343 23.937 108.776 23.5055C109.209 23.074 109.796 22.8333 110.408 22.837C111.014 22.8239 111.599 23.0645 112.02 23.5007C112.442 23.9369 112.662 24.5292 112.628 25.1348Z" fill="#6B6CE5"/>
<path fill-rule="evenodd" clip-rule="evenodd" d="M64.0937 8.43652H64.9824V14.6973H64.0937V8.43652ZM44.9317 9.5484C44.3879 8.97407 43.6151 8.67391 42.8262 8.73052H40.6709V14.6974H42.8262C44.6035 14.6974 45.6338 13.6016 45.6338 11.6954C45.7333 10.9107 45.4756 10.1227 44.9317 9.5484ZM42.7226 13.8535H41.5976V9.57373H42.7226C43.2835 9.54261 43.8289 9.76375 44.2096 10.1767C44.5904 10.5896 44.7668 11.151 44.6904 11.7075C44.7728 12.2663 44.5989 12.8325 44.2172 13.2488C43.8355 13.6651 43.2865 13.8872 42.7226 13.8535ZM46.6807 12.4439C46.6034 11.6367 46.9905 10.8556 47.6794 10.4281C48.3683 10.0006 49.2401 10.0006 49.929 10.4281C50.6179 10.8556 51.0049 11.6367 50.9277 12.4439C51.0064 13.2518 50.6197 14.0345 49.9302 14.4629C49.2407 14.8913 48.3677 14.8913 47.6782 14.4629C46.9886 14.0345 46.602 13.2518 46.6807 12.4439ZM48.8057 10.897C49.5752 10.897 50.0137 11.4678 50.0137 12.4439H50.0137C50.0137 13.4238 49.5752 13.9942 48.8057 13.9942C48.0332 13.9942 47.5987 13.4278 47.5987 12.4439C47.5987 11.4678 48.0332 10.897 48.8057 10.897ZM56.5732 14.6973H55.6514L54.7207 11.3809H54.6504L53.7236 14.6973H52.8105L51.5693 10.1943H52.4707L53.2773 13.6303H53.3438L54.2695 10.1943H55.1221L56.0479 13.6303H56.1182L56.9209 10.1943H57.8096L56.5732 14.6973ZM59.709 10.1943H58.8535L58.8535 14.6973H59.7422V12.063C59.7103 11.7633 59.8109 11.4647 60.0175 11.2453C60.2242 11.026 60.5163 10.9079 60.8174 10.9219C61.4746 10.9219 61.7891 11.2818 61.7891 12.0054V14.6972H62.6777V11.7822C62.7429 11.3419 62.6043 10.8959 62.3011 10.5701C61.9979 10.2443 61.563 10.0741 61.1191 10.1074C60.5459 10.0608 60.0063 10.383 59.7754 10.9097H59.709V10.1943ZM67.2167 10.428C66.5277 10.8556 66.1406 11.6367 66.2178 12.4439C66.1392 13.2519 66.5259 14.0345 67.2155 14.4629C67.9051 14.8913 68.778 14.8913 69.4676 14.4629C70.1572 14.0345 70.5439 13.2519 70.4653 12.4439C70.5425 11.6367 70.1554 10.8556 69.4664 10.428C68.7774 10.0005 67.9057 10.0005 67.2167 10.428ZM69.5508 12.4439C69.5508 11.4678 69.1123 10.897 68.3428 10.897C67.5703 10.897 67.1358 11.4678 67.1358 12.4439C67.1358 13.4278 67.5703 13.9942 68.3428 13.9942C69.1123 13.9942 69.5508 13.4238 69.5508 12.4439ZM73.0757 12.0796C72.0044 12.146 71.4009 12.6133 71.4009 13.4238C71.4024 13.8082 71.5664 14.1739 71.8524 14.4307C72.1383 14.6874 72.5196 14.8112 72.9019 14.7715C73.4472 14.7967 73.9638 14.5266 74.2544 14.0645H74.3247V14.6973H75.1802V11.6206C75.1802 10.6694 74.5435 10.1074 73.4146 10.1074C72.3931 10.1074 71.6655 10.6035 71.5747 11.377H72.4351C72.5337 11.0586 72.8774 10.8765 73.3735 10.8765C73.981 10.8765 74.2954 11.145 74.2954 11.6206V12.0093L73.0757 12.0796ZM74.2954 13.0391V12.6626L73.1958 12.7329C72.5757 12.7744 72.2944 12.9854 72.2944 13.3823C72.2944 13.7876 72.646 14.0234 73.1294 14.0234C73.4156 14.0524 73.7013 13.964 73.9211 13.7784C74.1409 13.5929 74.276 13.3261 74.2954 13.0391ZM78.2173 10.1196C77.0796 10.1196 76.3481 11.021 76.3481 12.4439C76.3481 13.8701 77.0718 14.7715 78.2173 14.7715C78.798 14.7929 79.3427 14.4903 79.6313 13.9858H79.7017V14.6973H80.5532V8.43652H79.6645V10.9096H79.5981C79.3298 10.401 78.7918 10.0932 78.2173 10.1196ZM77.2661 12.4439C77.2661 13.3989 77.7163 13.9737 78.4693 13.9737C79.2183 13.9737 79.6812 13.3907 79.6812 12.4478C79.6812 11.5093 79.2134 10.918 78.4693 10.918C77.7212 10.918 77.2661 11.4966 77.2661 12.4439H77.2661ZM85.2287 10.4281C84.5398 10.8556 84.1528 11.6367 84.23 12.4439C84.1513 13.2518 84.538 14.0345 85.2275 14.4629C85.917 14.8913 86.79 14.8913 87.4795 14.4629C88.1691 14.0345 88.5557 13.2518 88.4771 12.4439C88.5543 11.6367 88.1672 10.8556 87.4783 10.4281C86.7894 10.0006 85.9176 10.0006 85.2287 10.4281ZM87.563 12.4439C87.563 11.4678 87.1245 10.897 86.355 10.897C85.5825 10.897 85.148 11.4678 85.148 12.4439C85.148 13.4278 85.5826 13.9942 86.355 13.9942C87.1245 13.9942 87.563 13.4238 87.563 12.4439ZM90.5249 10.1943H89.6694V14.6973H90.5581V12.063C90.5262 11.7633 90.6268 11.4647 90.8335 11.2453C91.0401 11.026 91.3323 10.9079 91.6333 10.9219C92.2905 10.9219 92.605 11.2818 92.605 12.0054V14.6972H93.4936V11.7822C93.5588 11.3419 93.4202 10.8959 93.117 10.5701C92.8138 10.2443 92.3789 10.0741 91.9351 10.1074C91.3619 10.0608 90.8222 10.383 90.5913 10.9097H90.5249V10.1943ZM98.5151 9.07325V10.2149H99.4907V10.9634H98.5151V13.2788C98.5151 13.7505 98.7095 13.957 99.1519 13.957C99.2651 13.9567 99.3783 13.9498 99.4907 13.9365V14.6768C99.3311 14.7053 99.1694 14.7205 99.0073 14.7222C98.019 14.7222 97.6255 14.3745 97.6255 13.5064V10.9634H96.9106V10.2148H97.6255V9.07325H98.5151ZM101.585 8.43652H100.705L100.705 14.6973H101.593V12.0674C101.566 11.7584 101.676 11.453 101.895 11.2329C102.113 11.0128 102.418 10.9004 102.727 10.9258C103.355 10.9258 103.69 11.29 103.69 12.0093V14.6973H104.58V11.79C104.638 11.352 104.499 10.9106 104.199 10.586C103.899 10.2613 103.47 10.0873 103.029 10.1113C102.447 10.0641 101.898 10.3867 101.656 10.918H101.585V8.43652ZM109.761 13.4815C109.512 14.3308 108.69 14.8796 107.81 14.7842C107.21 14.8 106.633 14.5512 106.232 14.1036C105.831 13.656 105.648 13.055 105.73 12.46C105.65 11.8633 105.833 11.2613 106.231 10.81C106.63 10.3586 107.204 10.1023 107.806 10.1074C109.059 10.1074 109.815 10.9634 109.815 12.3774V12.6875H106.635V12.7373C106.607 13.0715 106.721 13.402 106.95 13.6476C107.178 13.8932 107.499 14.031 107.834 14.0273C108.269 14.0795 108.692 13.8639 108.906 13.4814L109.761 13.4815ZM108.91 12.0303H106.635C106.631 11.7198 106.753 11.4208 106.972 11.2012C107.192 10.9815 107.491 10.8599 107.801 10.8638C108.108 10.8568 108.403 10.9794 108.614 11.2016C108.825 11.4237 108.932 11.7247 108.91 12.0303Z" fill="#6B6CE5"/>
<path fill-rule="evenodd" clip-rule="evenodd" d="M28.1518 8.7207C28.2486 9.98494 27.8488 11.2371 27.0372 12.2113C26.2499 13.1906 25.0569 13.7546 23.8005 13.7417C23.7206 12.5139 24.132 11.3046 24.9442 10.3803C25.7667 9.44348 26.9119 8.85092 28.1518 8.7207ZM32.1254 16.1491C30.6801 17.0376 29.7907 18.6046 29.7689 20.3011C29.7709 22.2205 30.9204 23.9526 32.6881 24.7003C32.3481 25.8047 31.8357 26.8484 31.1697 27.7928C30.2753 29.1307 29.3376 30.4378 27.8492 30.4619C27.1413 30.4783 26.6635 30.2747 26.1656 30.0626C25.6462 29.8414 25.1051 29.6108 24.2582 29.6108C23.36 29.6108 22.7946 29.8488 22.2493 30.0783C21.778 30.2766 21.3218 30.4686 20.6788 30.4953C19.2613 30.5478 18.1781 29.0674 17.2512 27.742C15.3985 25.0354 13.956 20.1144 15.89 16.7659C16.7981 15.134 18.4962 14.0984 20.3629 14.0381C21.1668 14.0215 21.9382 14.3314 22.6145 14.603C23.1318 14.8108 23.5934 14.9962 23.9714 14.9962C24.3037 14.9962 24.7524 14.8181 25.2753 14.6106C26.0991 14.2836 27.1071 13.8836 28.1343 13.9914C29.7304 14.0413 31.2095 14.8409 32.1254 16.1491Z" fill="#6B6CE5"/>
</svg>
