<svg width="15" height="14" viewBox="0 0 15 14" fill="none" xmlns="http://www.w3.org/2000/svg">
<rect x="0.199585" width="14" height="14" rx="7" fill="#C7D8E9"/>
<path d="M6.73959 7.652C6.85159 7.554 6.97525 7.44667 7.11058 7.33C7.25058 7.21333 7.38125 7.092 7.50259 6.966C7.62859 6.83533 7.73125 6.69533 7.81059 6.546C7.89459 6.39667 7.93659 6.23567 7.93659 6.063C7.93659 5.811 7.86192 5.608 7.71259 5.454C7.56325 5.3 7.34859 5.223 7.06859 5.223C6.84459 5.223 6.65559 5.27433 6.50158 5.377C6.34759 5.47967 6.25192 5.61733 6.21459 5.79H5.41658C5.43525 5.57533 5.49358 5.384 5.59158 5.216C5.69425 5.048 5.82258 4.91033 5.97659 4.803C6.13059 4.69567 6.29859 4.61867 6.48059 4.572C6.66725 4.52067 6.87959 4.495 7.11759 4.495C7.34159 4.495 7.55159 4.52533 7.74759 4.586C7.94359 4.64667 8.11392 4.73767 8.25859 4.859C8.40792 4.98033 8.52459 5.13433 8.60859 5.321C8.69725 5.503 8.74159 5.71767 8.74159 5.965C8.74159 6.161 8.71592 6.34067 8.66459 6.504C8.61325 6.66733 8.54325 6.819 8.45459 6.959C8.36592 7.099 8.26325 7.22967 8.14659 7.351C8.03459 7.47233 7.91559 7.58667 7.78958 7.694C7.62159 7.83867 7.47225 7.96467 7.34159 8.072C7.21559 8.17467 7.10125 8.268 6.99858 8.352C6.89592 8.436 6.80259 8.513 6.71859 8.583C6.63459 8.64833 6.55525 8.71367 6.48059 8.779H8.74159V9.5H5.37458V8.835L6.73959 7.652Z" fill="#BFC0E4"/>
<path d="M6.73959 7.652C6.85159 7.554 6.97525 7.44667 7.11058 7.33C7.25058 7.21333 7.38125 7.092 7.50259 6.966C7.62859 6.83533 7.73125 6.69533 7.81059 6.546C7.89459 6.39667 7.93659 6.23567 7.93659 6.063C7.93659 5.811 7.86192 5.608 7.71259 5.454C7.56325 5.3 7.34859 5.223 7.06859 5.223C6.84459 5.223 6.65559 5.27433 6.50158 5.377C6.34759 5.47967 6.25192 5.61733 6.21459 5.79H5.41658C5.43525 5.57533 5.49358 5.384 5.59158 5.216C5.69425 5.048 5.82258 4.91033 5.97659 4.803C6.13059 4.69567 6.29859 4.61867 6.48059 4.572C6.66725 4.52067 6.87959 4.495 7.11759 4.495C7.34159 4.495 7.55159 4.52533 7.74759 4.586C7.94359 4.64667 8.11392 4.73767 8.25859 4.859C8.40792 4.98033 8.52459 5.13433 8.60859 5.321C8.69725 5.503 8.74159 5.71767 8.74159 5.965C8.74159 6.161 8.71592 6.34067 8.66459 6.504C8.61325 6.66733 8.54325 6.819 8.45459 6.959C8.36592 7.099 8.26325 7.22967 8.14659 7.351C8.03459 7.47233 7.91559 7.58667 7.78958 7.694C7.62159 7.83867 7.47225 7.96467 7.34159 8.072C7.21559 8.17467 7.10125 8.268 6.99858 8.352C6.89592 8.436 6.80259 8.513 6.71859 8.583C6.63459 8.64833 6.55525 8.71367 6.48059 8.779H8.74159V9.5H5.37458V8.835L6.73959 7.652Z" fill="white"/>
</svg>
