<svg width="24" height="25" viewBox="0 0 24 25" fill="none" xmlns="http://www.w3.org/2000/svg">
<path d="M10.921 2.66992H3.63968C3.15689 2.66992 2.69388 2.86171 2.3525 3.20309C2.01112 3.54447 1.81934 4.00748 1.81934 4.49026V11.7716C1.81934 12.2544 2.01112 12.7174 2.3525 13.0588C2.69388 13.4002 3.15689 13.592 3.63968 13.592H8.37256V11.7716C8.37256 11.0957 8.64106 10.4475 9.11899 9.96958C9.59692 9.49165 10.2451 9.22315 10.921 9.22315H12.7414V4.49026C12.7414 4.00748 12.5496 3.54447 12.2082 3.20309C11.8668 2.86171 11.4038 2.66992 10.921 2.66992ZM8.67838 9.05568L7.04007 10.0823C6.86707 10.1893 6.66823 10.2472 6.46484 10.2498C6.1745 10.2498 5.89594 10.135 5.68995 9.93037C5.48397 9.72574 5.36728 9.44795 5.36536 9.15761V7.10427C5.36752 6.9098 5.42123 6.71938 5.52101 6.55244C5.62078 6.3855 5.76305 6.24801 5.93331 6.154C6.10356 6.05999 6.2957 6.01282 6.49014 6.01731C6.68457 6.0218 6.87433 6.07778 7.04007 6.17954L8.67838 7.20621C8.83651 7.30324 8.96712 7.43919 9.05773 7.60109C9.14834 7.76299 9.19591 7.94542 9.19591 8.13094C9.19591 8.31647 9.14834 8.4989 9.05773 8.6608C8.96712 8.82269 8.83651 8.95865 8.67838 9.05568ZM8.46722 8.13094C8.46634 8.19254 8.44985 8.2529 8.41929 8.30639C8.38872 8.35988 8.34509 8.40473 8.29247 8.43676L6.65416 9.46343C6.5992 9.49869 6.53576 9.51853 6.4705 9.52085C6.40524 9.52317 6.34056 9.50789 6.28323 9.47662C6.2259 9.44535 6.17804 9.39924 6.14466 9.34311C6.11127 9.28699 6.0936 9.22292 6.09349 9.15761V7.10427C6.09408 7.03893 6.11189 6.97491 6.14512 6.91866C6.17836 6.8624 6.22586 6.81592 6.28281 6.78389C6.33997 6.75735 6.40186 6.7425 6.46484 6.7402C6.53238 6.74009 6.59837 6.76039 6.65416 6.79845L8.29247 7.82513C8.34509 7.85715 8.38872 7.90201 8.41929 7.95549C8.44985 8.00898 8.46634 8.06935 8.46722 8.13094ZM19.6587 9.95128H10.921C10.4383 9.95128 9.97524 10.1431 9.63386 10.4844C9.29248 10.8258 9.1007 11.2888 9.1007 11.7716V20.5093C9.1007 20.992 9.29248 21.4551 9.63386 21.7964C9.97524 22.1378 10.4383 22.3296 10.921 22.3296H19.6587C20.1415 22.3296 20.6045 22.1378 20.9458 21.7964C21.2872 21.4551 21.479 20.992 21.479 20.5093V11.7716C21.479 11.2888 21.2872 10.8258 20.9458 10.4844C20.6045 10.1431 20.1415 9.95128 19.6587 9.95128ZM12.0132 12.8638H16.3821C16.4786 12.8638 16.5712 12.9022 16.6395 12.9705C16.7078 13.0387 16.7461 13.1313 16.7461 13.2279C16.7461 13.3245 16.7078 13.4171 16.6395 13.4853C16.5712 13.5536 16.4786 13.592 16.3821 13.592H12.0132C11.9167 13.592 11.8241 13.5536 11.7558 13.4853C11.6875 13.4171 11.6492 13.3245 11.6492 13.2279C11.6492 13.1313 11.6875 13.0387 11.7558 12.9705C11.8241 12.9022 11.9167 12.8638 12.0132 12.8638ZM18.5665 19.4171H12.0132C11.9167 19.4171 11.8241 19.3787 11.7558 19.3104C11.6875 19.2421 11.6492 19.1495 11.6492 19.053C11.6492 18.9564 11.6875 18.8638 11.7558 18.7955C11.8241 18.7273 11.9167 18.6889 12.0132 18.6889H18.5665C18.663 18.6889 18.7556 18.7273 18.8239 18.7955C18.8922 18.8638 18.9305 18.9564 18.9305 19.053C18.9305 19.1495 18.8922 19.2421 18.8239 19.3104C18.7556 19.3787 18.663 19.4171 18.5665 19.4171ZM18.5665 16.5045H12.0132C11.9167 16.5045 11.8241 16.4662 11.7558 16.3979C11.6875 16.3296 11.6492 16.237 11.6492 16.1404C11.6492 16.0439 11.6875 15.9513 11.7558 15.883C11.8241 15.8147 11.9167 15.7764 12.0132 15.7764H18.5665C18.663 15.7764 18.7556 15.8147 18.8239 15.883C18.8922 15.9513 18.9305 16.0439 18.9305 16.1404C18.9305 16.237 18.8922 16.3296 18.8239 16.3979C18.7556 16.4662 18.663 16.5045 18.5665 16.5045Z" fill="#B6B7F9"/>
<path d="M10.921 2.66992H3.63968C3.15689 2.66992 2.69388 2.86171 2.3525 3.20309C2.01112 3.54447 1.81934 4.00748 1.81934 4.49026V11.7716C1.81934 12.2544 2.01112 12.7174 2.3525 13.0588C2.69388 13.4002 3.15689 13.592 3.63968 13.592H8.37256V11.7716C8.37256 11.0957 8.64106 10.4475 9.11899 9.96958C9.59692 9.49165 10.2451 9.22315 10.921 9.22315H12.7414V4.49026C12.7414 4.00748 12.5496 3.54447 12.2082 3.20309C11.8668 2.86171 11.4038 2.66992 10.921 2.66992ZM8.67838 9.05568L7.04007 10.0823C6.86707 10.1893 6.66823 10.2472 6.46484 10.2498C6.1745 10.2498 5.89594 10.135 5.68995 9.93037C5.48397 9.72574 5.36728 9.44795 5.36536 9.15761V7.10427C5.36752 6.9098 5.42123 6.71938 5.52101 6.55244C5.62078 6.3855 5.76305 6.24801 5.93331 6.154C6.10356 6.05999 6.2957 6.01282 6.49014 6.01731C6.68457 6.0218 6.87433 6.07778 7.04007 6.17954L8.67838 7.20621C8.83651 7.30324 8.96712 7.43919 9.05773 7.60109C9.14834 7.76299 9.19591 7.94542 9.19591 8.13094C9.19591 8.31647 9.14834 8.4989 9.05773 8.6608C8.96712 8.82269 8.83651 8.95865 8.67838 9.05568ZM8.46722 8.13094C8.46634 8.19254 8.44985 8.2529 8.41929 8.30639C8.38872 8.35988 8.34509 8.40473 8.29247 8.43676L6.65416 9.46343C6.5992 9.49869 6.53576 9.51853 6.4705 9.52085C6.40524 9.52317 6.34056 9.50789 6.28323 9.47662C6.2259 9.44535 6.17804 9.39924 6.14466 9.34311C6.11127 9.28699 6.0936 9.22292 6.09349 9.15761V7.10427C6.09408 7.03893 6.11189 6.97491 6.14512 6.91866C6.17836 6.8624 6.22586 6.81592 6.28281 6.78389C6.33997 6.75735 6.40186 6.7425 6.46484 6.7402C6.53238 6.74009 6.59837 6.76039 6.65416 6.79845L8.29247 7.82513C8.34509 7.85715 8.38872 7.90201 8.41929 7.95549C8.44985 8.00898 8.46634 8.06935 8.46722 8.13094ZM19.6587 9.95128H10.921C10.4383 9.95128 9.97524 10.1431 9.63386 10.4844C9.29248 10.8258 9.1007 11.2888 9.1007 11.7716V20.5093C9.1007 20.992 9.29248 21.4551 9.63386 21.7964C9.97524 22.1378 10.4383 22.3296 10.921 22.3296H19.6587C20.1415 22.3296 20.6045 22.1378 20.9458 21.7964C21.2872 21.4551 21.479 20.992 21.479 20.5093V11.7716C21.479 11.2888 21.2872 10.8258 20.9458 10.4844C20.6045 10.1431 20.1415 9.95128 19.6587 9.95128ZM12.0132 12.8638H16.3821C16.4786 12.8638 16.5712 12.9022 16.6395 12.9705C16.7078 13.0387 16.7461 13.1313 16.7461 13.2279C16.7461 13.3245 16.7078 13.4171 16.6395 13.4853C16.5712 13.5536 16.4786 13.592 16.3821 13.592H12.0132C11.9167 13.592 11.8241 13.5536 11.7558 13.4853C11.6875 13.4171 11.6492 13.3245 11.6492 13.2279C11.6492 13.1313 11.6875 13.0387 11.7558 12.9705C11.8241 12.9022 11.9167 12.8638 12.0132 12.8638ZM18.5665 19.4171H12.0132C11.9167 19.4171 11.8241 19.3787 11.7558 19.3104C11.6875 19.2421 11.6492 19.1495 11.6492 19.053C11.6492 18.9564 11.6875 18.8638 11.7558 18.7955C11.8241 18.7273 11.9167 18.6889 12.0132 18.6889H18.5665C18.663 18.6889 18.7556 18.7273 18.8239 18.7955C18.8922 18.8638 18.9305 18.9564 18.9305 19.053C18.9305 19.1495 18.8922 19.2421 18.8239 19.3104C18.7556 19.3787 18.663 19.4171 18.5665 19.4171ZM18.5665 16.5045H12.0132C11.9167 16.5045 11.8241 16.4662 11.7558 16.3979C11.6875 16.3296 11.6492 16.237 11.6492 16.1404C11.6492 16.0439 11.6875 15.9513 11.7558 15.883C11.8241 15.8147 11.9167 15.7764 12.0132 15.7764H18.5665C18.663 15.7764 18.7556 15.8147 18.8239 15.883C18.8922 15.9513 18.9305 16.0439 18.9305 16.1404C18.9305 16.237 18.8922 16.3296 18.8239 16.3979C18.7556 16.4662 18.663 16.5045 18.5665 16.5045Z" fill="url(#paint0_linear_2147_2246)"/>
<defs>
<linearGradient id="paint0_linear_2147_2246" x1="5.10979" y1="1.37054" x2="16.4072" y2="20.5388" gradientUnits="userSpaceOnUse">
<stop stop-color="#8256FA"/>
<stop offset="1" stop-color="#4DB0F9"/>
</linearGradient>
</defs>
</svg>
