<svg width="135" height="40" viewBox="0 0 135 40" fill="none" xmlns="http://www.w3.org/2000/svg">
<rect width="135" height="40" rx="5" fill="white"/>
<path fill-rule="evenodd" clip-rule="evenodd" d="M5 0H130C132.761 0 135 2.23858 135 5V35C135 37.7614 132.761 40 130 40H5C2.23858 40 0 37.7614 0 35V5C0 2.23858 2.23858 0 5 0ZM134.2 5C134.2 2.6804 132.32 0.8 130 0.8H5C2.6804 0.8 0.8 2.6804 0.8 5V35C0.8 37.3196 2.6804 39.2 5 39.2H130C132.32 39.2 134.2 37.3196 134.2 35V5Z" fill="white"/>
<path fill-rule="evenodd" clip-rule="evenodd" d="M47.74 23.0601V24.8601H52.06C51.9922 25.7079 51.6398 26.5079 51.06 27.1301C50.186 28.0204 48.9765 28.4998 47.73 28.4501C45.079 28.4501 42.93 26.3011 42.93 23.6501C42.93 20.9992 45.079 18.8501 47.73 18.8501C48.9478 18.8303 50.1237 19.2942 51 20.1401L52.27 18.8701C51.0749 17.66 49.4407 16.9854 47.74 17.0001C45.3189 16.9059 43.0404 18.1438 41.8018 20.2262C40.5633 22.3086 40.5633 24.9017 41.8018 26.9841C43.0404 29.0665 45.3189 30.3044 47.74 30.2101C49.4717 30.2884 51.1527 29.6138 52.35 28.3601C53.3977 27.2091 53.957 25.6959 53.91 24.1401C53.9132 23.7611 53.8797 23.3827 53.81 23.0101L47.74 23.0601ZM58.83 21.7501C56.4841 21.7557 54.5863 23.6609 54.59 26.0068C54.5937 28.3527 56.4974 30.252 58.8433 30.2501C61.1892 30.2483 63.09 28.346 63.09 26.0001C63.1064 24.8645 62.6612 23.7708 61.8562 22.9696C61.0513 22.1684 59.9555 21.7283 58.82 21.7501H58.83ZM63.91 26.0134C63.9026 23.6688 65.7954 21.7612 68.14 21.7501C69.2755 21.7283 70.3713 22.1684 71.1762 22.9696C71.9812 23.7708 72.4264 24.8645 72.41 26.0001C72.4099 28.3447 70.5112 30.2464 68.1666 30.2501C65.822 30.2537 63.9173 28.358 63.91 26.0134ZM65.632 27.1186C66.0886 28.0745 67.0832 28.654 68.14 28.5801C68.8033 28.5648 69.4322 28.2821 69.8841 27.7963C70.336 27.3105 70.5725 26.6628 70.54 26.0001C70.5374 24.9408 69.8875 23.9907 68.9012 23.6042C67.9148 23.2178 66.7925 23.4735 66.0709 24.2492C65.3494 25.0248 65.1753 26.1627 65.632 27.1186ZM56.3153 27.1262C56.7752 28.0815 57.7726 28.6582 58.83 28.5801H58.82C59.4833 28.5648 60.1122 28.2821 60.5641 27.7963C61.016 27.3105 61.2525 26.6628 61.22 26.0001C61.2171 24.9399 60.5659 23.9894 59.5783 23.6038C58.5907 23.2182 57.4678 23.4761 56.7473 24.2538C56.0268 25.0316 55.8555 26.171 56.3153 27.1262ZM89.41 21.7501C91.0679 21.8112 92.5161 22.8893 93.05 24.4601L93.26 24.9101L87.57 27.2601C87.9266 28.0723 88.7436 28.5839 89.63 28.5501C90.4858 28.5523 91.2797 28.1041 91.72 27.3701L93.17 28.3701C92.3806 29.5516 91.0508 30.2578 89.63 30.2501C88.5005 30.2667 87.4129 29.8233 86.617 29.0217C85.8211 28.2202 85.3854 27.1294 85.41 26.0001C85.3409 24.8967 85.7316 23.8138 86.4894 23.0087C87.2471 22.2035 88.3043 21.748 89.41 21.7501ZM87.25 25.8801C87.209 25.2553 87.4213 24.6403 87.8389 24.1737C88.2566 23.7072 88.8444 23.4284 89.47 23.4001C90.1293 23.3567 90.751 23.7108 91.05 24.3001L87.25 25.8801ZM84.5 30.0001H82.63V17.5001H84.5V30.0001ZM79.57 22.7001H79.5C78.9299 22.0628 78.115 21.699 77.26 21.7001C74.9901 21.8102 73.2063 23.6826 73.2063 25.9551C73.2063 28.2277 74.9901 30.1001 77.26 30.2101C78.1178 30.2246 78.938 29.8584 79.5 29.2101H79.56V29.8201C79.56 31.4501 78.69 32.3201 77.29 32.3201C76.3363 32.2978 75.4907 31.7012 75.15 30.8101L73.52 31.4901C74.1477 33.0169 75.6392 34.01 77.29 34.0001C79.48 34.0001 81.29 32.7101 81.29 29.5701V22.0001H79.57V22.7001ZM77.4269 28.5799L77.43 28.5801H77.42L77.4269 28.5799ZM79.1119 27.7779C78.6828 28.2636 78.0742 28.5531 77.4269 28.5799C76.0913 28.4606 75.0674 27.3414 75.0674 26.0001C75.0674 24.6578 76.0929 23.538 77.43 23.4201C78.0761 23.4533 78.6815 23.7459 79.1088 24.2316C79.5362 24.7174 79.7493 25.3551 79.7 26.0001C79.7551 26.6482 79.5426 27.2906 79.1119 27.7779ZM101.81 17.5001H97.34V30.0001H99.21V25.2601H101.82C103.273 25.3645 104.662 24.6486 105.42 23.4051C106.178 22.1616 106.178 20.5987 105.42 19.3552C104.662 18.1116 103.273 17.3958 101.82 17.5001H101.81ZM99.2 23.5001H101.81L101.85 23.5301C103.035 23.5301 103.995 22.5698 103.995 21.3851C103.995 20.2005 103.035 19.2401 101.85 19.2401H99.2V23.5001ZM113.34 21.7001C111.949 21.617 110.641 22.3672 110.01 23.6101L111.67 24.3001C112.004 23.6838 112.671 23.323 113.37 23.3801C113.85 23.3241 114.331 23.4631 114.708 23.7658C115.084 24.0686 115.322 24.5097 115.37 24.9901V25.1201C114.769 24.8021 114.1 24.6373 113.42 24.6401C111.63 24.6401 109.82 25.6401 109.82 27.4501C109.856 28.2298 110.205 28.962 110.789 29.4799C111.373 29.9979 112.142 30.2577 112.92 30.2001C113.879 30.269 114.8 29.8089 115.32 29.0001H115.38V30.0001H117.18V25.1901C117.18 23.0001 115.52 21.7301 113.39 21.7301L113.34 21.7001ZM111.65 27.4901C111.65 28.2401 112.5 28.5501 113.11 28.5501L113.16 28.5801C114.286 28.5527 115.221 27.6996 115.35 26.5801C114.831 26.2905 114.244 26.1455 113.65 26.1601C112.71 26.1601 111.65 26.4901 111.65 27.4901ZM123.74 22.0001L121.6 27.4201H121.54L119.32 22.0001H117.32L120.65 29.5801L118.75 33.7901H120.7L125.82 22.0001H123.74ZM108.8 30.0001H106.93V17.5001H108.8V30.0001Z" fill="#6B6CE5"/>
<path fill-rule="evenodd" clip-rule="evenodd" d="M69.21 7.77046C68.0302 9.01923 68.0302 10.9717 69.21 12.2205C70.427 13.4307 72.393 13.4307 73.61 12.2205C74.7947 10.9737 74.7947 9.01722 73.61 7.77046C73.028 7.18421 72.2361 6.85449 71.41 6.85449C70.5839 6.85449 69.792 7.18421 69.21 7.77046ZM46.67 12.2405C47.1832 11.7046 47.4543 10.9817 47.42 10.2405C47.42 10.0896 47.4067 9.93897 47.38 9.79046H44.47V10.5105H46.64C46.6252 10.964 46.4477 11.397 46.14 11.7305C45.4546 12.393 44.4379 12.5781 43.5629 12.1997C42.688 11.8213 42.1266 10.9536 42.14 10.0005C42.1182 9.36968 42.3544 8.75725 42.794 8.3044C43.2337 7.85155 43.8388 7.59736 44.47 7.60046C45.0979 7.56615 45.7053 7.82914 46.11 8.31046L46.64 7.78046C46.384 7.48602 46.0618 7.25641 45.7 7.11046C45.3113 6.94413 44.8927 6.85905 44.47 6.86046C43.6406 6.84197 42.8405 7.16779 42.26 7.76046C41.3665 8.65978 41.0992 10.0071 41.5817 11.1794C42.0641 12.3517 43.2023 13.1205 44.47 13.1305C45.2965 13.1599 46.0964 12.8363 46.67 12.2405ZM49.3 7.74046H52V7.00046H48.5V13.0005H52V12.2605H49.3V10.3605H51.76V9.64046H49.3V7.74046ZM55.28 13.0005H54.51V7.74046H52.83V7.00046H57V7.74046H55.28V13.0005ZM60.71 7.00046H59.94V13.0005H60.71V7.00046ZM64.13 13.0005H63.36V7.74046H61.68V7.00046H65.8V7.74046H64.13V13.0005ZM76.52 7.00046H75.58V13.0005H76.36V8.11046L79.41 13.0005H80.21V7.00046H79.44V11.6705L76.52 7.00046ZM69.78 11.7205C70.6813 12.618 72.1387 12.618 73.04 11.7205C73.9252 10.7446 73.9252 9.25629 73.04 8.28046C72.1387 7.38289 70.6813 7.38289 69.78 8.28046C68.8948 9.25629 68.8948 10.7446 69.78 11.7205Z" fill="#6B6CE5"/>
<path d="M69.21 12.2205L69.1373 12.2892L69.1395 12.2914L69.21 12.2205ZM69.21 7.77046L69.139 7.69998L69.1373 7.70179L69.21 7.77046ZM73.61 12.2205L73.6805 12.2914L73.6825 12.2893L73.61 12.2205ZM73.61 7.77046L73.6825 7.70156L73.681 7.70001L73.61 7.77046ZM47.42 10.2405L47.3199 10.2404L47.3201 10.2451L47.42 10.2405ZM46.67 12.2405L46.742 12.3098L46.7422 12.3096L46.67 12.2405ZM47.38 9.79046L47.4784 9.77278L47.4636 9.69046H47.38V9.79046ZM44.47 9.79046V9.69046H44.37V9.79046H44.47ZM44.47 10.5105H44.37V10.6105H44.47V10.5105ZM46.64 10.5105L46.7399 10.5137L46.7433 10.4105H46.64V10.5105ZM46.14 11.7305L46.2096 11.8025L46.2135 11.7983L46.14 11.7305ZM43.5629 12.1997L43.5232 12.2915H43.5232L43.5629 12.1997ZM42.14 10.0005L42.2401 10.0019L42.2399 9.99701L42.14 10.0005ZM42.794 8.3044L42.7223 8.23474L42.794 8.3044ZM44.47 7.60046L44.4695 7.70064L44.4754 7.70031L44.47 7.60046ZM46.11 8.31046L46.0334 8.37481L46.1036 8.45826L46.1807 8.38117L46.11 8.31046ZM46.64 7.78046L46.7107 7.85117L46.7766 7.78522L46.7154 7.71484L46.64 7.78046ZM45.7 7.11046L45.6606 7.20241L45.6626 7.2032L45.7 7.11046ZM44.47 6.86046L44.4678 6.96047L44.4703 6.96046L44.47 6.86046ZM42.26 7.76046L42.3309 7.83094L42.3314 7.83043L42.26 7.76046ZM41.5817 11.1794L41.4892 11.2174L41.5817 11.1794ZM44.47 13.1305L44.4735 13.0305L44.4708 13.0305L44.47 13.1305ZM52 7.74046V7.84046H52.1V7.74046H52ZM49.3 7.74046V7.64046H49.2V7.74046H49.3ZM52 7.00046H52.1V6.90046H52V7.00046ZM48.5 7.00046V6.90046H48.4V7.00046H48.5ZM48.5 13.0005H48.4V13.1005H48.5V13.0005ZM52 13.0005V13.1005H52.1V13.0005H52ZM52 12.2605H52.1V12.1605H52V12.2605ZM49.3 12.2605H49.2V12.3605H49.3V12.2605ZM49.3 10.3605V10.2605H49.2V10.3605H49.3ZM51.76 10.3605V10.4605H51.86V10.3605H51.76ZM51.76 9.64046H51.86V9.54046H51.76V9.64046ZM49.3 9.64046H49.2V9.74046H49.3V9.64046ZM54.51 13.0005H54.41V13.1005H54.51V13.0005ZM55.28 13.0005V13.1005H55.38V13.0005H55.28ZM54.51 7.74046H54.61V7.64046H54.51V7.74046ZM52.83 7.74046H52.73V7.84046H52.83V7.74046ZM52.83 7.00046V6.90046H52.73V7.00046H52.83ZM57 7.00046H57.1V6.90046H57V7.00046ZM57 7.74046V7.84046H57.1V7.74046H57ZM55.28 7.74046V7.64046H55.18V7.74046H55.28ZM59.94 7.00046V6.90046H59.84V7.00046H59.94ZM60.71 7.00046H60.81V6.90046H60.71V7.00046ZM59.94 13.0005H59.84V13.1005H59.94V13.0005ZM60.71 13.0005V13.1005H60.81V13.0005H60.71ZM63.36 13.0005H63.26V13.1005H63.36V13.0005ZM64.13 13.0005V13.1005H64.23V13.0005H64.13ZM63.36 7.74046H63.46V7.64046H63.36V7.74046ZM61.68 7.74046H61.58V7.84046H61.68V7.74046ZM61.68 7.00046V6.90046H61.58V7.00046H61.68ZM65.8 7.00046H65.9V6.90046H65.8V7.00046ZM65.8 7.74046V7.84046H65.9V7.74046H65.8ZM64.13 7.74046V7.64046H64.03V7.74046H64.13ZM75.58 7.00046V6.90046H75.48V7.00046H75.58ZM76.52 7.00046L76.6048 6.94744L76.5754 6.90046H76.52V7.00046ZM75.58 13.0005H75.48V13.1005H75.58V13.0005ZM76.36 13.0005V13.1005H76.46V13.0005H76.36ZM76.36 8.11046L76.4448 8.05754L76.26 7.76117V8.11046H76.36ZM79.41 13.0005L79.3251 13.0534L79.3545 13.1005H79.41V13.0005ZM80.21 13.0005V13.1005H80.31V13.0005H80.21ZM80.21 7.00046H80.31V6.90046H80.21V7.00046ZM79.44 7.00046V6.90046H79.34V7.00046H79.44ZM79.44 11.6705L79.3552 11.7235L79.54 12.019V11.6705H79.44ZM73.04 11.7205L73.1106 11.7914L73.114 11.7876L73.04 11.7205ZM69.78 11.7205L69.7058 11.7877L69.7094 11.7913L69.78 11.7205ZM73.04 8.28046L73.1141 8.21319L73.1105 8.2096L73.04 8.28046ZM69.78 8.28046L69.7093 8.20951L69.7059 8.21327L69.78 8.28046ZM69.2827 12.1518C68.1394 10.9416 68.1394 9.04936 69.2827 7.83913L69.1373 7.70179C67.9211 8.98909 67.9211 11.0018 69.1373 12.2891L69.2827 12.1518ZM73.5395 12.1496C72.3615 13.321 70.4585 13.321 69.2805 12.1496L69.1395 12.2914C70.3955 13.5404 72.4245 13.5404 73.6805 12.2914L73.5395 12.1496ZM73.5375 7.83934C74.6856 9.04751 74.6856 10.9434 73.5375 12.1516L73.6825 12.2893C74.9039 11.004 74.9039 8.98693 73.6825 7.70157L73.5375 7.83934ZM71.41 6.95449C72.2094 6.95449 72.9758 7.27357 73.539 7.84091L73.681 7.70001C73.0802 7.09484 72.2627 6.75449 71.41 6.75449V6.95449ZM69.2809 7.84091C69.8442 7.27357 70.6105 6.95449 71.41 6.95449V6.75449C70.5572 6.75449 69.7398 7.09484 69.139 7.70001L69.2809 7.84091ZM47.3201 10.2451C47.3532 10.959 47.0921 11.6552 46.5978 12.1713L46.7422 12.3096C47.2744 11.754 47.5555 11.0044 47.5199 10.2358L47.3201 10.2451ZM47.2816 9.80814C47.3072 9.9508 47.32 10.0955 47.32 10.2404L47.52 10.2405C47.52 10.0837 47.5061 9.92714 47.4784 9.77278L47.2816 9.80814ZM44.47 9.89046H47.38V9.69046H44.47V9.89046ZM44.57 10.5105V9.79046H44.37V10.5105H44.57ZM46.64 10.4105H44.47V10.6105H46.64V10.4105ZM46.2135 11.7983C46.5375 11.4472 46.7243 10.9912 46.7399 10.5137L46.54 10.5072C46.526 10.9367 46.3579 11.3468 46.0665 11.6626L46.2135 11.7983ZM43.5232 12.2915C44.4352 12.686 45.495 12.493 46.2095 11.8024L46.0705 11.6586C45.4141 12.293 44.4405 12.4703 43.6026 12.1079L43.5232 12.2915ZM42.04 9.99905C42.026 10.9926 42.6112 11.897 43.5232 12.2915L43.6026 12.1079C42.7647 11.7455 42.2271 10.9147 42.24 10.0019L42.04 9.99905ZM42.7223 8.23474C42.2637 8.70711 42.0173 9.34594 42.04 10.0039L42.2399 9.99701C42.2191 9.39342 42.4451 8.80739 42.8658 8.37406L42.7223 8.23474ZM44.4705 7.50046C43.8121 7.49723 43.1809 7.76237 42.7223 8.23474L42.8658 8.37406C43.2865 7.94072 43.8655 7.6975 44.4695 7.70046L44.4705 7.50046ZM46.1865 8.24611C45.7616 7.74072 45.1238 7.46458 44.4645 7.50061L44.4754 7.70031C45.0719 7.66772 45.649 7.91755 46.0334 8.37481L46.1865 8.24611ZM46.5693 7.70975L46.0393 8.23975L46.1807 8.38117L46.7107 7.85117L46.5693 7.70975ZM45.6626 7.2032C46.0098 7.34324 46.3189 7.56355 46.5645 7.84607L46.7154 7.71484C46.4491 7.40848 46.1139 7.16958 45.7374 7.01772L45.6626 7.2032ZM44.4703 6.96046C44.8794 6.9591 45.2845 7.04143 45.6606 7.20239L45.7393 7.01852C45.3381 6.84683 44.906 6.75901 44.4696 6.76046L44.4703 6.96046ZM42.3314 7.83043C42.8926 7.25752 43.666 6.94257 44.4678 6.96043L44.4722 6.76048C43.6151 6.74138 42.7884 7.07805 42.1885 7.69048L42.3314 7.83043ZM41.6741 11.1413C41.207 10.0062 41.4658 8.70171 42.3309 7.83094L42.189 7.68998C41.2672 8.61785 40.9914 10.0079 41.4892 11.2174L41.6741 11.1413ZM44.4708 13.0305C43.2433 13.0209 42.1413 12.2764 41.6741 11.1413L41.4892 11.2174C41.987 12.4269 43.1613 13.2202 44.4692 13.2305L44.4708 13.0305ZM46.5979 12.1711C46.0441 12.7464 45.2716 13.0589 44.4735 13.0305L44.4664 13.2304C45.3213 13.2608 46.1488 12.9261 46.742 12.3098L46.5979 12.1711ZM52 7.64046H49.3V7.84046H52V7.64046ZM51.9 7.00046V7.74046H52.1V7.00046H51.9ZM48.5 7.10046H52V6.90046H48.5V7.10046ZM48.6 13.0005V7.00046H48.4V13.0005H48.6ZM52 12.9005H48.5V13.1005H52V12.9005ZM51.9 12.2605V13.0005H52.1V12.2605H51.9ZM49.3 12.3605H52V12.1605H49.3V12.3605ZM49.2 10.3605V12.2605H49.4V10.3605H49.2ZM51.76 10.2605H49.3V10.4605H51.76V10.2605ZM51.66 9.64046V10.3605H51.86V9.64046H51.66ZM49.3 9.74046H51.76V9.54046H49.3V9.74046ZM49.2 7.74046V9.64046H49.4V7.74046H49.2ZM54.51 13.1005H55.28V12.9005H54.51V13.1005ZM54.41 7.74046V13.0005H54.61V7.74046H54.41ZM52.83 7.84046H54.51V7.64046H52.83V7.84046ZM52.73 7.00046V7.74046H52.93V7.00046H52.73ZM57 6.90046H52.83V7.10046H57V6.90046ZM57.1 7.74046V7.00046H56.9V7.74046H57.1ZM55.28 7.84046H57V7.64046H55.28V7.84046ZM55.38 13.0005V7.74046H55.18V13.0005H55.38ZM59.94 7.10046H60.71V6.90046H59.94V7.10046ZM60.04 13.0005V7.00046H59.84V13.0005H60.04ZM60.71 12.9005H59.94V13.1005H60.71V12.9005ZM60.61 7.00046V13.0005H60.81V7.00046H60.61ZM63.36 13.1005H64.13V12.9005H63.36V13.1005ZM63.26 7.74046V13.0005H63.46V7.74046H63.26ZM61.68 7.84046H63.36V7.64046H61.68V7.84046ZM61.58 7.00046V7.74046H61.78V7.00046H61.58ZM65.8 6.90046H61.68V7.10046H65.8V6.90046ZM65.9 7.74046V7.00046H65.7V7.74046H65.9ZM64.13 7.84046H65.8V7.64046H64.13V7.84046ZM64.23 13.0005V7.74046H64.03V13.0005H64.23ZM75.58 7.10046H76.52V6.90046H75.58V7.10046ZM75.68 13.0005V7.00046H75.48V13.0005H75.68ZM76.36 12.9005H75.58V13.1005H76.36V12.9005ZM76.26 8.11046V13.0005H76.46V8.11046H76.26ZM79.4948 12.9475L76.4448 8.05754L76.2751 8.16338L79.3251 13.0534L79.4948 12.9475ZM80.21 12.9005H79.41V13.1005H80.21V12.9005ZM80.11 7.00046V13.0005H80.31V7.00046H80.11ZM79.44 7.10046H80.21V6.90046H79.44V7.10046ZM79.54 11.6705V7.00046H79.34V11.6705H79.54ZM76.4352 7.05348L79.3552 11.7235L79.5248 11.6174L76.6048 6.94744L76.4352 7.05348ZM72.9694 11.6496C72.1071 12.5083 70.7128 12.5083 69.8505 11.6496L69.7094 11.7913C70.6498 12.7277 72.1702 12.7277 73.1105 11.7913L72.9694 11.6496ZM72.9659 8.34765C73.8165 9.28536 73.8165 10.7156 72.9659 11.6533L73.114 11.7876C74.0338 10.7737 74.0338 9.22722 73.114 8.21327L72.9659 8.34765ZM69.8505 8.35132C70.7128 7.49261 72.1071 7.49261 72.9694 8.35132L73.1105 8.2096C72.1702 7.27318 70.6498 7.27318 69.7094 8.2096L69.8505 8.35132ZM69.854 11.6533C69.0034 10.7156 69.0034 9.28536 69.854 8.34765L69.7059 8.21327C68.7861 9.22722 68.7861 10.7737 69.7059 11.7876L69.854 11.6533Z" fill="#6B6CE5"/>
<path d="M10.44 7.53973C10.114 7.93083 9.94952 8.43152 9.97996 8.93973V31.0597C9.94952 31.5679 10.114 32.0686 10.44 32.4597L10.51 32.5297L22.9 20.1497V19.8597L10.51 7.46973L10.44 7.53973Z" fill="url(#paint0_linear_2110_3156)"/>
<path d="M27 24.2797L22.9 20.1497V19.8597L27 15.7197L27.09 15.7697L32 18.5597C33.4 19.3497 33.4 20.6497 32 21.4497L27.11 24.2297L27 24.2797Z" fill="url(#paint1_linear_2110_3156)"/>
<path d="M27.1199 24.22L22.8999 20L10.4399 32.46C11.0287 32.9775 11.9024 33.0027 12.5199 32.52L27.1299 24.22" fill="url(#paint2_linear_2110_3156)"/>
<path d="M27.12 15.7796L12.51 7.47956C11.8924 6.99684 11.0187 7.02204 10.43 7.53956L22.9 19.9996L27.12 15.7796Z" fill="url(#paint3_linear_2110_3156)"/>
<path opacity="0.2" d="M26.9999 24.1299L12.5099 32.3799C11.917 32.8232 11.1029 32.8232 10.5099 32.3799L10.4399 32.4499L10.5099 32.5199C11.1018 32.9666 11.9181 32.9666 12.5099 32.5199L27.1199 24.2199L26.9999 24.1299Z" fill="white"/>
<path opacity="0.12" fill-rule="evenodd" clip-rule="evenodd" d="M27 24.13L32 21.3C32.5167 21.045 32.886 20.5648 33 20C32.9484 20.6244 32.567 21.1736 32 21.44L27.09 24.22L27 24.13ZM9.97779 31.1147C9.9943 31.5546 10.1558 31.979 10.44 32.32L10.51 32.4L10.44 32.47C10.1236 32.0904 9.9593 31.6075 9.97779 31.1147ZM9.97779 31.1147C9.97834 31.0998 9.97907 31.0849 9.97996 31.07V30.92C9.97606 30.9851 9.97536 31.05 9.97779 31.1147Z" fill="white"/>
<path opacity="0.25" d="M12.51 7.61945L32 18.6994C32.5167 18.9545 32.886 19.4346 33 19.9994C32.9484 19.375 32.567 18.8258 32 18.5594L12.51 7.47945C11.11 6.68945 9.96997 7.34945 9.96997 8.94945V9.09945C9.99997 7.48945 11.12 6.82945 12.51 7.61945Z" fill="#6B6CE5"/>
<defs>
<linearGradient id="paint0_linear_2110_3156" x1="17.4732" y1="-7.55925" x2="-2.36623" y2="-2.28291" gradientUnits="userSpaceOnUse">
<stop stop-color="#00A0FF"/>
<stop offset="0.01" stop-color="#00A1FF"/>
<stop offset="0.26" stop-color="#00BEFF"/>
<stop offset="0.51" stop-color="#00D2FF"/>
<stop offset="0.76" stop-color="#00DFFF"/>
<stop offset="1" stop-color="#00E3FF"/>
</linearGradient>
<linearGradient id="paint1_linear_2110_3156" x1="33.83" y1="9.79941" x2="9.63996" y2="9.79941" gradientUnits="userSpaceOnUse">
<stop stop-color="#FFE000"/>
<stop offset="0.41" stop-color="#FFBD00"/>
<stop offset="0.78" stop-color="#FFA500"/>
<stop offset="1" stop-color="#FF9C00"/>
</linearGradient>
<linearGradient id="paint2_linear_2110_3156" x1="10.0738" y1="13.5275" x2="-5.86261" y2="40.3341" gradientUnits="userSpaceOnUse">
<stop stop-color="#FF3A44"/>
<stop offset="1" stop-color="#C31162"/>
</linearGradient>
<linearGradient id="paint3_linear_2110_3156" x1="0.710012" y1="4.09557" x2="7.8233" y2="16.066" gradientUnits="userSpaceOnUse">
<stop stop-color="#32A071"/>
<stop offset="0.07" stop-color="#2DA771"/>
<stop offset="0.48" stop-color="#15CF74"/>
<stop offset="0.8" stop-color="#06E775"/>
<stop offset="1" stop-color="#00F076"/>
</linearGradient>
</defs>
</svg>
