<svg width="17" height="10" viewBox="0 0 17 10" fill="none" xmlns="http://www.w3.org/2000/svg">
<path d="M4.52004 9.14653C6.51655 9.14653 8.18803 7.72316 8.57095 5.83831H10.3094V7.49242H11.9635V5.83831H13.6176V8.31947H15.2718V5.83831H16.0988V4.1842H8.57095C8.18803 2.29934 6.51655 0.875977 4.52004 0.875977C2.23985 0.875977 0.384766 2.73106 0.384766 5.01125C0.384766 7.29144 2.23985 9.14653 4.52004 9.14653ZM4.52004 2.53009C5.88799 2.53009 7.0012 3.6433 7.0012 5.01125C7.0012 6.3792 5.88799 7.49242 4.52004 7.49242C3.15209 7.49242 2.03888 6.3792 2.03888 5.01125C2.03888 3.6433 3.15209 2.53009 4.52004 2.53009Z" fill="#4FB8F9"/>
</svg>
