<svg width="29" height="29" viewBox="0 0 29 29" fill="none" xmlns="http://www.w3.org/2000/svg">
<g clip-path="url(#clip0_1206_12696)">
<path d="M15.3543 8.81152L13.6457 10.5225L16.4212 13.292H2.41663V15.7087H16.4115L13.6445 18.4806L15.3555 20.188L21.0419 14.4895L15.3543 8.81152Z" fill="white"/>
<path d="M14.4999 2.41699C9.09988 2.41699 4.51788 5.98037 2.97363 10.8753H5.54376C6.98288 7.33853 10.452 4.83366 14.4999 4.83366C19.8299 4.83366 24.1666 9.17037 24.1666 14.5003C24.1666 19.8303 19.8299 24.167 14.4999 24.167C10.452 24.167 6.98288 21.6633 5.54497 18.1253H2.97363C4.51667 23.0215 9.09867 26.5837 14.4999 26.5837C21.1627 26.5837 26.5833 21.1631 26.5833 14.5003C26.5833 7.83758 21.1627 2.41699 14.4999 2.41699Z" fill="white"/>
</g>
<defs>
<clipPath id="clip0_1206_12696">
<rect width="29" height="29" fill="white"/>
</clipPath>
</defs>
</svg>
