<svg width="47" height="62" viewBox="0 0 47 62" fill="none" xmlns="http://www.w3.org/2000/svg">
<path d="M5.20508 25.6335V44.8121C5.20508 47.775 7.82089 49.8437 11.5682 49.8437C15.1358 49.8437 17.9314 48.0686 17.9314 45.8398V20.8288C17.9314 19.4008 16.101 17.7592 14.2306 17.292V15.6504L13.4186 15.497C12.8029 15.3929 12.1792 15.3438 11.5549 15.3502C7.98729 15.3502 5.20508 17.1052 5.20508 19.354V22.3169H7.20188V19.354C7.20188 18.3998 9.04559 17.3521 11.5549 17.3521C11.7812 17.3521 12.0075 17.3521 12.2205 17.3521V26.6945H11.5549C10.0347 26.6605 8.53262 27.0312 7.20188 27.7689V25.6335H5.20508ZM7.20188 34.3086C7.20188 33.3477 9.07222 32.2666 11.5815 32.2666C11.8145 32.2666 12.0341 32.2666 12.2471 32.2666V38.873C10.4833 38.9464 8.57302 39.2534 7.18857 40.2811L7.20188 34.3086ZM11.5815 47.8551C9.39836 47.8551 7.20188 46.9142 7.20188 44.8188C7.20188 43.3574 7.57462 42.2363 8.94575 41.569V44.1115L10.1106 43.8979C10.5961 43.8112 11.0884 43.7688 11.5815 43.7711C14.0842 43.7711 15.9612 44.8455 15.9612 45.8131C15.9612 46.7807 14.0576 47.8484 11.5549 47.8484M14.2173 19.3807C14.9397 19.6496 15.5466 20.1614 15.9346 20.8288V27.7689C15.3968 27.4514 14.8193 27.2068 14.2173 27.0415V19.3807ZM14.2173 29.1369C15.269 29.5373 15.9346 30.1445 15.9346 30.7118V31.3791C15.3968 31.0615 14.8193 30.8169 14.2173 30.6517V29.1369ZM13.2256 40.8683H14.2173V32.7004C15.269 33.1007 15.9346 33.708 15.9346 34.2752V42.8569C14.5963 42.1124 13.085 41.737 11.5549 41.7692C11.3353 41.7692 11.1156 41.7692 10.8893 41.7692V41.0084C11.6594 40.9077 12.4356 40.8609 13.2122 40.8683M11.5549 28.6965C11.7879 28.6965 12.0075 28.6965 12.2205 28.6965V30.2847C11.9942 30.2847 11.7723 30.2847 11.5549 30.2847C10.0341 30.2527 8.53198 30.6257 7.20188 31.3657V30.6984C7.20188 29.7508 9.04559 28.6965 11.5549 28.6965Z" fill="white"/>
<path d="M11.7345 56.9702C15.3532 58.9554 19.2217 60.4435 23.2361 61.3945L23.4424 61.4412L23.6554 61.3945C27.6698 60.4434 31.5384 58.9553 35.157 56.9702C42.838 52.6927 46.8982 46.9004 46.8982 40.2206V33.3673H44.9014V40.2406C44.9014 49.3161 36.4017 54.5679 30.0519 57.2238V47.808H28.0551V57.9845C26.5575 58.5317 25.2862 58.9188 24.4275 59.1523V36.4636H22.4307V59.1523C20.1554 58.5246 17.9305 57.726 15.7747 56.7634V51.9787H13.8578V55.8158C8.12032 52.8662 2.01011 47.9147 2.01011 40.2206V12.0732L4.35303 11.7262V15.0028H6.34983V11.4326L15.2556 10.098C15.4205 10.3746 15.6005 10.6419 15.7947 10.8988C15.9848 11.1284 16.1478 11.3791 16.2806 11.6462C16.3843 11.9465 16.4536 12.2577 16.4869 12.5737C16.5244 13.3907 16.831 14.1723 17.3589 14.7959C17.9842 15.3195 18.7617 15.6262 19.5753 15.6701C19.8905 15.7035 20.201 15.7729 20.5005 15.8769C20.7659 16.0117 21.0159 16.175 21.246 16.3641C21.6264 16.6634 22.0422 16.9144 22.484 17.1115V33.0069H24.4808V17.1315C24.9226 16.9344 25.3384 16.6834 25.7188 16.3841C25.9489 16.195 26.1989 16.0317 26.4643 15.897C26.7638 15.7929 27.0742 15.7235 27.3895 15.6901C28.203 15.6462 28.9806 15.3395 29.6059 14.8159C30.1282 14.189 30.4341 13.4094 30.4778 12.5937C30.5125 12.2785 30.5795 11.9677 30.6775 11.6662C30.8154 11.4006 30.9805 11.1501 31.1701 10.9188C31.3643 10.662 31.5443 10.3946 31.7092 10.118L40.0159 11.3459V16.3574H42.0127V11.6462L44.9081 12.0732V29.1765H46.9049V10.3582L32.042 8.1561C31.8756 7.52771 31.5759 6.94272 31.1634 6.44109C30.9763 6.20934 30.8135 5.95889 30.6775 5.6937C30.5738 5.39339 30.5045 5.08218 30.4712 4.76613C30.4337 3.94911 30.1271 3.1676 29.5992 2.54397C28.976 2.01583 28.1977 1.7065 27.3828 1.66312C27.0679 1.63155 26.7575 1.56439 26.4576 1.46292C26.1922 1.32818 25.9422 1.16484 25.7121 0.975781C25.4268 0.667962 25.0813 0.422437 24.697 0.254545C24.3128 0.0866528 23.8982 0 23.4791 0C23.0599 0 22.6453 0.0866528 22.2611 0.254545C21.8768 0.422437 21.5313 0.667962 21.246 0.975781C21.0159 1.16484 20.7659 1.32818 20.5005 1.46292C20.2006 1.56439 19.8902 1.63155 19.5753 1.66312C18.7604 1.7065 17.9821 2.01583 17.3589 2.54397C16.8181 3.16259 16.4994 3.94486 16.4536 4.76613C16.4213 5.08018 16.3521 5.38929 16.2473 5.68703C16.1132 5.95536 15.9503 6.20821 15.7614 6.44109C15.3417 6.9409 15.0352 7.52601 14.8629 8.1561L0 10.3582V40.2206C0 46.8938 4.06016 52.6927 11.7345 56.9702ZM17.3522 7.62892C17.6421 7.26808 17.8879 6.87379 18.0844 6.45444C18.2465 6.00606 18.356 5.54024 18.4105 5.06642C18.426 4.67458 18.5356 4.29228 18.73 3.95201C19.0714 3.75605 19.4551 3.64613 19.8482 3.6317C20.3172 3.58734 20.7795 3.48882 21.226 3.33808C21.6443 3.14108 22.0375 2.89465 22.3975 2.60403C22.6887 2.31742 23.0486 2.11061 23.4424 2.00345C23.8404 2.09699 24.2073 2.29243 24.5074 2.57066C24.8614 2.87205 25.2502 3.1297 25.6655 3.33808C26.1128 3.50068 26.5774 3.61041 27.05 3.66506C27.4408 3.68057 27.8222 3.79045 28.1616 3.98537C28.355 4.31524 28.4711 4.68492 28.501 5.06642C28.5555 5.54024 28.665 6.00606 28.8272 6.45444C29.0236 6.87379 29.2694 7.26808 29.5593 7.62892C29.8379 7.92318 30.0372 8.28374 30.1384 8.6766C30.0391 9.07218 29.8397 9.43535 29.5593 9.73096C29.2694 10.0918 29.0236 10.4861 28.8272 10.9054C28.6619 11.3529 28.5524 11.8191 28.501 12.2935C28.4823 12.6848 28.3729 13.0663 28.1815 13.4079C27.8408 13.5997 27.4603 13.7094 27.07 13.7282C26.5968 13.7797 26.1318 13.8895 25.6855 14.0552C25.2636 14.2492 24.8677 14.4958 24.5074 14.7892C24.2047 15.0624 23.8386 15.2551 23.4424 15.3498C23.0518 15.2454 22.6928 15.046 22.3975 14.7692C22.0392 14.4763 21.6456 14.2297 21.226 14.0351C20.781 13.8768 20.3182 13.7737 19.8482 13.7282C19.4579 13.7094 19.0773 13.5997 18.7367 13.4079C18.5422 13.0676 18.4326 12.6853 18.4172 12.2935C18.3627 11.8196 18.2532 11.3538 18.091 10.9054C17.8945 10.4861 17.6487 10.0918 17.3589 9.73096C17.0761 9.4361 16.8743 9.07286 16.7731 8.6766C16.8743 8.28374 17.0736 7.92318 17.3522 7.62892Z" fill="white"/>
<path d="M34.9975 51.1317V46.9543L40.3689 41.5691V24.3857C40.3689 21.0958 35.2903 15.8708 34.7113 15.2835L34.0057 14.5762L33.3002 15.2835C32.7211 15.8708 27.6426 21.0958 27.6426 24.3857V33.9417H29.6394V31.4593L33.0273 34.8559V44.1382L29.6394 40.7416V36.9246H27.6426V41.5958L33.014 46.981V51.1584L34.9975 51.1317ZM38.3854 40.7416L34.9975 44.1382V38.7997L38.3854 35.4098V40.7416ZM38.3854 32.607L34.9975 36.037V30.892L38.3854 27.4954V32.607ZM29.6261 28.6432V24.3857C29.6261 22.7308 32.0821 19.5143 34.0057 17.4256C35.9293 19.5143 38.3854 22.7641 38.3854 24.3857V24.6927L34.9975 28.0826V25.6803H33.0007V32.0331L29.6261 28.6432Z" fill="white"/>
<path d="M23.4426 13.528C24.3999 13.5293 25.3362 13.2459 26.1328 12.7136C26.9294 12.1813 27.5507 11.4241 27.9179 10.5377C28.2852 9.65139 28.382 8.67573 28.196 7.73422C28.0101 6.7927 27.5497 5.92764 26.8733 5.2485C26.1968 4.56935 25.3346 4.10664 24.3957 3.9189C23.4569 3.73117 22.4836 3.82685 21.599 4.19385C20.7144 4.56084 19.9583 5.18265 19.4263 5.9806C18.8943 6.77855 18.6104 7.71678 18.6104 8.67658C18.6121 9.96155 19.1216 11.1935 20.0272 12.1027C20.9329 13.012 22.1609 13.5244 23.4426 13.528ZM23.4426 5.82047C24.006 5.82047 24.5568 5.98797 25.0253 6.30181C25.4938 6.61564 25.8589 7.0617 26.0745 7.58359C26.2901 8.10548 26.3466 8.67975 26.2366 9.23378C26.1267 9.78781 25.8554 10.2967 25.457 10.6962C25.0586 11.0956 24.551 11.3676 23.9984 11.4778C23.4458 11.588 22.873 11.5315 22.3524 11.3153C21.8319 11.0991 21.387 10.733 21.0739 10.2633C20.7609 9.79366 20.5938 9.24146 20.5938 8.67658C20.5956 7.91963 20.8963 7.19419 21.4302 6.65895C21.964 6.12371 22.6876 5.82223 23.4426 5.82047Z" fill="white"/>
</svg>
