<svg width="118" height="22" viewBox="0 0 118 22" fill="none" xmlns="http://www.w3.org/2000/svg">
<path d="M13.7183 3.2827V12.6745H12.2425V14.9242H17.4443V12.6745H15.9684V3.2827H17.4443V1.03906H11.2323L8.96409 8.74968H8.46206L6.21801 1.03906H0V3.2827H1.45772V12.6745H0V14.9242H5.18369V12.6745H3.70782V3.2827H4.53044L6.77448 10.9933H10.6517L12.9139 3.2827H13.7183Z" fill="white"/>
<path d="M33.0437 10.9211C33.4591 10.0042 33.6657 9.00656 33.6486 8.00014C33.6696 6.97192 33.463 5.95176 33.0437 5.01265C32.6503 4.16148 32.0814 3.40306 31.3743 2.78715C30.6634 2.17267 29.8424 1.69862 28.9548 1.39017C28.0008 1.06476 26.999 0.90123 25.991 0.906367C25.0069 0.904664 24.0296 1.06821 23.0997 1.39017C22.1993 1.69857 21.3644 2.17235 20.6379 2.78715C19.9186 3.4003 19.3373 4.15876 18.9322 5.01265C18.497 5.94756 18.2798 6.96908 18.2971 8.00014C18.2817 9.01547 18.4989 10.0209 18.9322 10.9392C19.3432 11.793 19.9236 12.5543 20.6379 13.1768C21.3616 13.8014 22.1969 14.2836 23.0997 14.598C24.9941 15.2671 27.0605 15.2671 28.9548 14.598C29.8455 14.2792 30.6668 13.7927 31.3743 13.1647C32.077 12.5424 32.6451 11.783 33.0437 10.9332M30.9751 9.9656C30.7261 10.5478 30.3548 11.0696 29.8863 11.4956C29.3933 11.937 28.8177 12.2761 28.1927 12.4935C27.4764 12.7374 26.7234 12.856 25.9668 12.8442C25.2361 12.8523 24.5096 12.7336 23.8195 12.4935C23.1947 12.2719 22.6178 11.9333 22.1198 11.4956C21.6368 11.0732 21.2509 10.5512 20.9887 9.9656C20.7136 9.34686 20.5714 8.67727 20.5714 8.00014C20.5714 7.32301 20.7136 6.65342 20.9887 6.03469C21.2538 5.45594 21.6394 4.94048 22.1198 4.5228C22.6181 4.08709 23.195 3.75047 23.8195 3.53101C24.5092 3.28882 25.2358 3.16809 25.9668 3.1742C26.7238 3.16424 27.4768 3.28495 28.1927 3.53101C28.8173 3.74625 29.393 4.08336 29.8863 4.5228C30.3549 4.9511 30.7262 5.47491 30.9751 6.05888C31.483 7.31997 31.483 8.72869 30.9751 9.98979" fill="white"/>
<path d="M47.4757 1.03907H40.0782C39.4534 1.0384 38.8354 1.16817 38.2636 1.42006C37.6786 1.67766 37.1472 2.04281 36.697 2.49653C36.2347 2.95471 35.8668 3.49921 35.6143 4.09913C35.3604 4.69969 35.2327 5.34606 35.2393 5.99806C35.2343 6.65186 35.3619 7.2999 35.6143 7.90303C35.8653 8.50556 36.2333 9.05233 36.697 9.51168C37.313 10.1465 38.0912 10.6004 38.9471 10.824L38.6265 11.5557C38.5354 11.8894 38.3415 12.1859 38.0722 12.4031C37.8029 12.6202 37.472 12.7469 37.1265 12.7653C36.8102 12.773 36.4975 12.6979 36.2192 12.5475C35.9413 12.3806 35.687 12.1772 35.4631 11.9428L34.0598 13.5696C34.4651 13.9907 34.9321 14.3475 35.445 14.6279C36.077 14.9164 36.7731 15.0363 37.4653 14.9759C38.1575 14.9155 38.8222 14.6768 39.3947 14.2832C40.0411 13.7424 40.5474 13.0536 40.8706 12.2754L41.4755 10.9873H45.2559V12.6866H43.7497V14.9363H48.9334V12.6866H47.4757V1.03907ZM45.2256 8.75573H40.0964C39.7459 8.75761 39.3991 8.68333 39.0802 8.53802C38.7638 8.39515 38.4798 8.18939 38.2455 7.93327C38.0075 7.68114 37.817 7.38819 37.683 7.06847C37.544 6.73308 37.4741 6.37315 37.4773 6.01015C37.4753 5.64606 37.5495 5.28558 37.6951 4.95183C37.8368 4.626 38.0424 4.33192 38.2999 4.08703C38.815 3.57746 39.5109 3.29261 40.2355 3.2948H45.2498L45.2256 8.75573Z" fill="white"/>
<path d="M66.6562 7.25043C66.9151 6.92029 67.1193 6.55071 67.2611 6.15582C67.4144 5.74582 67.4923 5.31147 67.4909 4.87374C67.4929 4.36238 67.39 3.85604 67.1885 3.38605C66.9935 2.93434 66.7143 2.52387 66.3659 2.17654C66.0195 1.82684 65.6087 1.54754 65.1561 1.35407C64.6857 1.15447 64.1792 1.05361 63.6682 1.05774H54.323V3.31348H55.7807V12.7053H54.323V14.955H64.2428C64.8017 14.9583 65.3555 14.8472 65.8699 14.6284C66.373 14.4144 66.8308 14.1065 67.2187 13.7213C67.6065 13.3329 67.9183 12.8755 68.1381 12.3727C68.3643 11.8518 68.4797 11.2896 68.4768 10.7217C68.471 10.0463 68.3073 9.3815 67.999 8.78046C67.6999 8.1652 67.2348 7.64573 66.6562 7.28066M58.0308 3.31348H63.644C63.9065 3.31651 64.1644 3.38375 64.395 3.50933C64.6256 3.63491 64.8219 3.81501 64.9669 4.03392C65.1119 4.25283 65.2011 4.50388 65.2267 4.76517C65.2523 5.02647 65.2135 5.29005 65.1138 5.53292C65.0361 5.72003 64.9232 5.89045 64.7811 6.03487C64.635 6.18075 64.4626 6.2977 64.273 6.37958C64.0831 6.46638 63.8769 6.51174 63.6682 6.51263H58.0308V3.31348ZM66.0695 11.5019C65.9672 11.7295 65.8213 11.935 65.64 12.1066C65.4645 12.2818 65.2598 12.425 65.0351 12.5299C64.7936 12.6377 64.5314 12.6914 64.267 12.6872H58.0308V8.75627H64.2972C64.5545 8.76921 64.8069 8.83077 65.0412 8.9377C65.2642 9.0429 65.4685 9.18385 65.6461 9.35497C65.8261 9.52507 65.9683 9.73112 66.0634 9.95973C66.1657 10.1942 66.2173 10.4477 66.2146 10.7036C66.2156 10.9716 66.1621 11.237 66.0574 11.4837" fill="white"/>
<path d="M84.2577 5.01265C83.8657 4.16062 83.2966 3.40193 82.5882 2.78715C81.8769 2.17338 81.056 1.69942 80.1688 1.39017C79.2126 1.06475 78.2089 0.901236 77.1989 0.906367C76.2149 0.905235 75.2376 1.06876 74.3076 1.39017C73.4078 1.69986 72.5731 2.17351 71.8458 2.78715C71.0928 3.42761 70.492 4.22781 70.0871 5.12955C69.6822 6.03129 69.4833 7.01193 69.505 8.00014C69.4896 9.01547 69.7068 10.0209 70.1401 10.9392C70.5533 11.7917 71.1333 12.5525 71.8458 13.1768C72.5705 13.8001 73.4055 14.2822 74.3076 14.598C76.2041 15.2671 78.2724 15.2671 80.1688 14.598C81.0591 14.2784 81.8802 13.7919 82.5882 13.1647C83.3208 12.5235 83.9048 11.7304 84.2997 10.8406C84.6946 9.95074 84.8907 8.98557 84.8746 8.01223C84.8956 6.98401 84.6891 5.96385 84.2698 5.02475M82.189 9.96559C81.9443 10.5502 81.5724 11.0728 81.1003 11.4956C80.6082 11.9381 80.0323 12.2775 79.4067 12.4935C78.6903 12.7374 77.9374 12.856 77.1807 12.8442C76.452 12.8528 75.7274 12.7341 75.0395 12.4935C74.4128 12.2719 73.834 11.9333 73.3338 11.4956C72.8526 11.0716 72.467 10.55 72.2027 9.96559C71.9316 9.3458 71.7916 8.67663 71.7916 8.00014C71.7916 7.32365 71.9316 6.65448 72.2027 6.03469C72.4669 5.44848 72.8524 4.92494 73.3338 4.49861C73.8343 4.06284 74.4132 3.72626 75.0395 3.50681C75.727 3.26412 76.4517 3.14337 77.1807 3.15001C77.9377 3.14006 78.6907 3.26076 79.4067 3.50681C80.0319 3.72072 80.6078 4.05799 81.1003 4.49861C81.5725 4.92367 81.9444 5.44834 82.189 6.03469C82.697 7.29578 82.697 8.7045 82.189 9.96559Z" fill="white"/>
<path d="M91.6249 10.7877L92.7137 3.2827H97.6736V12.6745H96.1735V14.9242H101.357V12.6745H99.8995V1.03906H88.407V3.31294H90.4273L89.3809 10.4249C89.3432 10.7151 89.2763 11.0008 89.1813 11.2776C89.096 11.5452 88.9738 11.7996 88.8183 12.0335C88.6746 12.2528 88.4872 12.4401 88.2679 12.5838C88.0356 12.7332 87.7637 12.8091 87.4876 12.8015C87.2036 12.8176 86.9212 12.7481 86.6771 12.602C86.4373 12.4347 86.2144 12.2443 86.0118 12.0335L84.6448 13.5938C84.8686 13.8175 85.0803 14.0231 85.2859 14.1985C85.4839 14.3719 85.701 14.5221 85.9331 14.646C86.1601 14.7678 86.4021 14.8593 86.6529 14.9182C86.9389 14.9814 87.2311 15.0118 87.5239 15.0089C88.0536 15.0253 88.5804 14.9255 89.0673 14.7165C89.5543 14.5075 89.9896 14.1945 90.3426 13.7994C90.6967 13.4015 90.9791 12.9452 91.1773 12.4508C91.3936 11.9188 91.5439 11.3623 91.6249 10.7938" fill="white"/>
<path d="M115.771 12.6746V1.03907H108.374C107.749 1.03787 107.131 1.16766 106.559 1.42007C105.973 1.67613 105.441 2.04147 104.992 2.49653C104.53 2.95471 104.162 3.49922 103.91 4.09913C103.656 4.69969 103.528 5.34607 103.535 5.99806C103.53 6.65187 103.657 7.2999 103.91 7.90303C104.161 8.50556 104.529 9.05233 104.992 9.51168C105.607 10.1456 106.383 10.5994 107.236 10.824L106.922 11.5558C106.83 11.889 106.636 12.185 106.367 12.402C106.098 12.619 105.767 12.746 105.422 12.7653C105.106 12.773 104.793 12.698 104.515 12.5476C104.237 12.3806 103.982 12.1772 103.759 11.9428L102.355 13.5696C102.76 13.9907 103.228 14.3475 103.74 14.6279C104.372 14.9164 105.068 15.0363 105.761 14.9759C106.453 14.9155 107.118 14.6768 107.69 14.2832C108.336 13.7424 108.843 13.0536 109.166 12.2754L109.771 10.9873H113.551V12.6866H112.075V14.9363H117.259V12.6866L115.771 12.6746ZM113.521 8.75574H108.392C108.041 8.75762 107.695 8.68333 107.376 8.53803C107.059 8.39515 106.775 8.18939 106.541 7.93327C106.303 7.68114 106.112 7.38819 105.978 7.06847C105.839 6.73309 105.769 6.37316 105.773 6.01015C105.771 5.64606 105.845 5.28558 105.99 4.95183C106.132 4.626 106.338 4.33193 106.595 4.08703C106.849 3.83336 107.151 3.6327 107.484 3.49669C107.816 3.36069 108.172 3.29207 108.531 3.29481H113.545L113.521 8.75574Z" fill="white"/>
<path d="M101.617 21.305C101.796 21.3107 101.973 21.2716 102.132 21.1913C102.292 21.111 102.429 20.9921 102.531 20.8454L102.24 20.6035C102.173 20.7018 102.083 20.7823 101.977 20.8382C101.872 20.894 101.755 20.9234 101.635 20.924C101.516 20.924 101.399 20.8947 101.293 20.8388C101.188 20.783 101.098 20.7022 101.031 20.6035L100.74 20.8454C100.843 20.9909 100.98 21.109 101.14 21.1891C101.299 21.2692 101.475 21.309 101.654 21.305" fill="white"/>
</svg>
