<svg width="22" height="23" viewBox="0 0 22 23" fill="none" xmlns="http://www.w3.org/2000/svg">
<g clip-path="url(#clip0_2147_2255)">
<path d="M7.94922 20.3768C8.41189 21.4172 9.43786 22.1509 10.6487 22.1509C11.8596 22.1509 12.8856 21.4172 13.3483 20.3768C12.4944 20.4185 11.6065 20.4466 10.6487 20.4466C9.69096 20.4466 8.80305 20.4185 7.94922 20.3768Z" fill="#B6B7F9"/>
<path d="M7.94922 20.3768C8.41189 21.4172 9.43786 22.1509 10.6487 22.1509C11.8596 22.1509 12.8856 21.4172 13.3483 20.3768C12.4944 20.4185 11.6065 20.4466 10.6487 20.4466C9.69096 20.4466 8.80305 20.4185 7.94922 20.3768Z" fill="url(#paint0_linear_2147_2255)"/>
<path d="M20.0465 15.8664C18.9234 14.4502 17.0386 11.6663 17.0386 8.94286C17.0386 6.24248 15.3036 3.81304 12.7779 2.92001C12.7473 1.77135 11.8031 0.847656 10.6484 0.847656C9.49294 0.847656 8.54965 1.77135 8.51895 2.92001C5.9924 3.81304 4.25748 6.24248 4.25748 8.94286C4.25748 11.6671 2.37344 14.4502 1.24949 15.8664C0.87456 16.3393 0.758641 16.9639 0.940175 17.5374C1.11742 18.0972 1.5588 18.531 2.12121 18.6963C3.10628 18.9869 4.72103 19.3141 7.18371 19.4811C8.2497 19.5527 9.39583 19.5945 10.6485 19.5945C11.9002 19.5945 13.0464 19.5527 14.1124 19.4811C16.5759 19.3141 18.1898 18.9869 19.1757 18.6963C19.7381 18.531 20.1787 18.0973 20.3559 17.5374C20.5374 16.9639 20.4206 16.3393 20.0465 15.8664Z" fill="#B6B7F9"/>
<path d="M20.0465 15.8664C18.9234 14.4502 17.0386 11.6663 17.0386 8.94286C17.0386 6.24248 15.3036 3.81304 12.7779 2.92001C12.7473 1.77135 11.8031 0.847656 10.6484 0.847656C9.49294 0.847656 8.54965 1.77135 8.51895 2.92001C5.9924 3.81304 4.25748 6.24248 4.25748 8.94286C4.25748 11.6671 2.37344 14.4502 1.24949 15.8664C0.87456 16.3393 0.758641 16.9639 0.940175 17.5374C1.11742 18.0972 1.5588 18.531 2.12121 18.6963C3.10628 18.9869 4.72103 19.3141 7.18371 19.4811C8.2497 19.5527 9.39583 19.5945 10.6485 19.5945C11.9002 19.5945 13.0464 19.5527 14.1124 19.4811C16.5759 19.3141 18.1898 18.9869 19.1757 18.6963C19.7381 18.531 20.1787 18.0973 20.3559 17.5374C20.5374 16.9639 20.4206 16.3393 20.0465 15.8664Z" fill="url(#paint1_linear_2147_2255)"/>
</g>
<defs>
<linearGradient id="paint0_linear_2147_2255" x1="4.13374" y1="-0.56035" x2="16.8494" y2="19.2732" gradientUnits="userSpaceOnUse">
<stop stop-color="#8256FA"/>
<stop offset="1" stop-color="#4DB0F9"/>
</linearGradient>
<linearGradient id="paint1_linear_2147_2255" x1="4.13374" y1="-0.56035" x2="16.8494" y2="19.2732" gradientUnits="userSpaceOnUse">
<stop stop-color="#8256FA"/>
<stop offset="1" stop-color="#4DB0F9"/>
</linearGradient>
<clipPath id="clip0_2147_2255">
<rect width="21.3032" height="21.3032" fill="white" transform="translate(0 0.848633)"/>
</clipPath>
</defs>
</svg>
