<svg width="22" height="23" viewBox="0 0 22 23" fill="none" xmlns="http://www.w3.org/2000/svg">
<g clip-path="url(#clip0_2147_2259)">
<path d="M20.0523 8.64376C19.6517 8.58557 19.2694 8.43776 18.9338 8.21133C18.5983 7.9849 18.3181 7.68569 18.1142 7.33599C17.9103 6.98628 17.788 6.59508 17.7562 6.19152C17.7245 5.78796 17.7842 5.38244 17.9309 5.00516C18.0242 4.75851 18.0379 4.48885 17.9702 4.234C17.9025 3.97915 17.7567 3.75188 17.5533 3.58405C16.6554 2.83001 15.6333 2.23766 14.5326 1.8334C14.282 1.74029 14.0083 1.72866 13.7507 1.80016C13.4931 1.87165 13.2646 2.02263 13.0977 2.23159C12.8467 2.55264 12.5258 2.81231 12.1594 2.99089C11.793 3.16948 11.3908 3.26229 10.9832 3.26229C10.5757 3.26229 10.1734 3.16948 9.80707 2.99089C9.44071 2.81231 9.11981 2.55264 8.86873 2.23159C8.70192 2.02263 8.47342 1.87165 8.21579 1.80016C7.95815 1.72866 7.68453 1.74029 7.43389 1.8334C6.4176 2.20662 5.46739 2.73967 4.61912 3.41241C4.4053 3.58169 4.25129 3.81497 4.17964 4.07811C4.10798 4.34124 4.12246 4.6204 4.22094 4.87472C4.37936 5.26198 4.44481 5.68098 4.41205 6.09811C4.37929 6.51524 4.24922 6.91888 4.03228 7.27667C3.81534 7.63445 3.51757 7.9364 3.16286 8.15832C2.80814 8.38023 2.40635 8.51592 1.98972 8.55451C1.71923 8.58343 1.46518 8.69843 1.26496 8.88259C1.06474 9.06674 0.928939 9.31031 0.877545 9.57744C0.749712 10.2102 0.685318 10.8542 0.685318 11.4997C0.684378 12.0402 0.728006 12.5798 0.815758 13.1131C0.859431 13.3887 0.992708 13.6424 1.19498 13.8347C1.39726 14.0271 1.65726 14.1474 1.9348 14.1772C2.36058 14.2171 2.7706 14.3585 3.13053 14.5894C3.49046 14.8204 3.78984 15.1342 4.0036 15.5046C4.21737 15.875 4.3393 16.2912 4.3592 16.7184C4.37909 17.1456 4.29637 17.5713 4.11796 17.9599C4.0012 18.2128 3.97224 18.4973 4.03567 18.7685C4.0991 19.0396 4.2513 19.2818 4.46809 19.4566C5.36065 20.1969 6.37291 20.7797 7.46135 21.1798C7.60054 21.228 7.74658 21.2535 7.89386 21.2553C8.09582 21.2548 8.29473 21.206 8.47391 21.1128C8.65309 21.0196 8.80731 20.8849 8.92366 20.7198C9.16835 20.3633 9.49635 20.0719 9.87919 19.8709C10.262 19.6699 10.6882 19.5654 11.1205 19.5664C11.5395 19.567 11.9525 19.6653 12.3268 19.8536C12.701 20.0419 13.0262 20.315 13.2762 20.6511C13.4426 20.8748 13.6782 21.0371 13.9464 21.1128C14.2147 21.1886 14.5004 21.1735 14.7591 21.0699C15.7544 20.6694 16.6809 20.1158 17.5053 19.4291C17.7123 19.2579 17.8598 19.0255 17.9264 18.7652C17.993 18.5049 17.9754 18.2302 17.876 17.9805C17.7145 17.5983 17.6441 17.1837 17.6703 16.7696C17.6965 16.3554 17.8187 15.953 18.0271 15.5942C18.2354 15.2353 18.5244 14.9298 18.8711 14.7018C19.2178 14.4737 19.6128 14.3294 20.0248 14.2802C20.292 14.2432 20.5405 14.1222 20.7343 13.9345C20.9281 13.7469 21.0571 13.5025 21.1027 13.2366C21.2129 12.664 21.2727 12.0828 21.2812 11.4997C21.2813 10.8847 21.2238 10.271 21.1095 9.66669C21.0632 9.4067 20.9361 9.16793 20.7463 8.9843C20.5565 8.80066 20.3137 8.68151 20.0523 8.64376ZM14.4159 11.4997C14.4159 12.1786 14.2146 12.8423 13.8374 13.4068C13.4602 13.9713 12.9241 14.4113 12.2969 14.6711C11.6696 14.9309 10.9794 14.9989 10.3136 14.8664C9.6477 14.734 9.03606 14.407 8.556 13.927C8.07593 13.4469 7.74901 12.8353 7.61656 12.1694C7.48411 11.5035 7.55209 10.8133 7.81189 10.1861C8.0717 9.55887 8.51167 9.02276 9.07617 8.64558C9.64066 8.2684 10.3043 8.06708 10.9832 8.06708C11.8936 8.06708 12.7667 8.42873 13.4105 9.07247C14.0542 9.71622 14.4159 10.5893 14.4159 11.4997Z" fill="#B6B7F9"/>
<path d="M20.0523 8.64376C19.6517 8.58557 19.2694 8.43776 18.9338 8.21133C18.5983 7.9849 18.3181 7.68569 18.1142 7.33599C17.9103 6.98628 17.788 6.59508 17.7562 6.19152C17.7245 5.78796 17.7842 5.38244 17.9309 5.00516C18.0242 4.75851 18.0379 4.48885 17.9702 4.234C17.9025 3.97915 17.7567 3.75188 17.5533 3.58405C16.6554 2.83001 15.6333 2.23766 14.5326 1.8334C14.282 1.74029 14.0083 1.72866 13.7507 1.80016C13.4931 1.87165 13.2646 2.02263 13.0977 2.23159C12.8467 2.55264 12.5258 2.81231 12.1594 2.99089C11.793 3.16948 11.3908 3.26229 10.9832 3.26229C10.5757 3.26229 10.1734 3.16948 9.80707 2.99089C9.44071 2.81231 9.11981 2.55264 8.86873 2.23159C8.70192 2.02263 8.47342 1.87165 8.21579 1.80016C7.95815 1.72866 7.68453 1.74029 7.43389 1.8334C6.4176 2.20662 5.46739 2.73967 4.61912 3.41241C4.4053 3.58169 4.25129 3.81497 4.17964 4.07811C4.10798 4.34124 4.12246 4.6204 4.22094 4.87472C4.37936 5.26198 4.44481 5.68098 4.41205 6.09811C4.37929 6.51524 4.24922 6.91888 4.03228 7.27667C3.81534 7.63445 3.51757 7.9364 3.16286 8.15832C2.80814 8.38023 2.40635 8.51592 1.98972 8.55451C1.71923 8.58343 1.46518 8.69843 1.26496 8.88259C1.06474 9.06674 0.928939 9.31031 0.877545 9.57744C0.749712 10.2102 0.685318 10.8542 0.685318 11.4997C0.684378 12.0402 0.728006 12.5798 0.815758 13.1131C0.859431 13.3887 0.992708 13.6424 1.19498 13.8347C1.39726 14.0271 1.65726 14.1474 1.9348 14.1772C2.36058 14.2171 2.7706 14.3585 3.13053 14.5894C3.49046 14.8204 3.78984 15.1342 4.0036 15.5046C4.21737 15.875 4.3393 16.2912 4.3592 16.7184C4.37909 17.1456 4.29637 17.5713 4.11796 17.9599C4.0012 18.2128 3.97224 18.4973 4.03567 18.7685C4.0991 19.0396 4.2513 19.2818 4.46809 19.4566C5.36065 20.1969 6.37291 20.7797 7.46135 21.1798C7.60054 21.228 7.74658 21.2535 7.89386 21.2553C8.09582 21.2548 8.29473 21.206 8.47391 21.1128C8.65309 21.0196 8.80731 20.8849 8.92366 20.7198C9.16835 20.3633 9.49635 20.0719 9.87919 19.8709C10.262 19.6699 10.6882 19.5654 11.1205 19.5664C11.5395 19.567 11.9525 19.6653 12.3268 19.8536C12.701 20.0419 13.0262 20.315 13.2762 20.6511C13.4426 20.8748 13.6782 21.0371 13.9464 21.1128C14.2147 21.1886 14.5004 21.1735 14.7591 21.0699C15.7544 20.6694 16.6809 20.1158 17.5053 19.4291C17.7123 19.2579 17.8598 19.0255 17.9264 18.7652C17.993 18.5049 17.9754 18.2302 17.876 17.9805C17.7145 17.5983 17.6441 17.1837 17.6703 16.7696C17.6965 16.3554 17.8187 15.953 18.0271 15.5942C18.2354 15.2353 18.5244 14.9298 18.8711 14.7018C19.2178 14.4737 19.6128 14.3294 20.0248 14.2802C20.292 14.2432 20.5405 14.1222 20.7343 13.9345C20.9281 13.7469 21.0571 13.5025 21.1027 13.2366C21.2129 12.664 21.2727 12.0828 21.2812 11.4997C21.2813 10.8847 21.2238 10.271 21.1095 9.66669C21.0632 9.4067 20.9361 9.16793 20.7463 8.9843C20.5565 8.80066 20.3137 8.68151 20.0523 8.64376ZM14.4159 11.4997C14.4159 12.1786 14.2146 12.8423 13.8374 13.4068C13.4602 13.9713 12.9241 14.4113 12.2969 14.6711C11.6696 14.9309 10.9794 14.9989 10.3136 14.8664C9.6477 14.734 9.03606 14.407 8.556 13.927C8.07593 13.4469 7.74901 12.8353 7.61656 12.1694C7.48411 11.5035 7.55209 10.8133 7.81189 10.1861C8.0717 9.55887 8.51167 9.02276 9.07617 8.64558C9.64066 8.2684 10.3043 8.06708 10.9832 8.06708C11.8936 8.06708 12.7667 8.42873 13.4105 9.07247C14.0542 9.71622 14.4159 10.5893 14.4159 11.4997Z" fill="url(#paint0_linear_2147_2259)"/>
</g>
<defs>
<linearGradient id="paint0_linear_2147_2259" x1="4.13244" y1="0.464991" x2="15.0341" y2="20" gradientUnits="userSpaceOnUse">
<stop stop-color="#8256FA"/>
<stop offset="1" stop-color="#4DB0F9"/>
</linearGradient>
<clipPath id="clip0_2147_2259">
<rect width="21.9689" height="21.9689" fill="white" transform="translate(0 0.515625)"/>
</clipPath>
</defs>
</svg>
