<svg width="99" height="5" viewBox="0 0 99 5" fill="none" xmlns="http://www.w3.org/2000/svg">
<path d="M1.81709 2.49788H0.812032V1.83056H2.80883V1.08984H0V4.92024H1.81709C1.98833 4.92881 2.1595 4.90182 2.31985 4.84096C2.4802 4.7801 2.62628 4.68668 2.74893 4.56656C2.96741 4.33079 3.08884 4.02087 3.08884 3.69905C3.08884 3.37723 2.96741 3.06731 2.74893 2.83154C2.62595 2.71228 2.47966 2.61988 2.31927 2.56016C2.15889 2.50043 1.9879 2.47468 1.81709 2.48453M2.1033 4.06608C1.99301 4.15708 1.85335 4.20455 1.71059 4.19954H0.812032V3.19856H1.69728C1.84131 3.19278 1.98199 3.24298 2.08998 3.33869C2.14072 3.38348 2.18081 3.4391 2.2073 3.50146C2.2338 3.56382 2.24602 3.63134 2.24307 3.69905C2.24518 3.76764 2.2326 3.83589 2.2062 3.8992C2.17979 3.9625 2.14016 4.01941 2.08998 4.06608" fill="white"/>
<path d="M4.00024 4.93292H6.70258V4.21222H4.81228V3.34472H6.66264V2.63069H4.81228V1.81656H6.70258V1.10254H4.00024V4.93292Z" fill="white"/>
<path d="M9.58465 1.75609C9.77309 1.7555 9.95779 1.80873 10.1171 1.90957C10.2723 2.0103 10.4003 2.14782 10.4899 2.30997L11.1555 1.96964C11.0057 1.67556 10.775 1.43065 10.4907 1.2639C10.2064 1.09716 9.88047 1.01554 9.55137 1.02872C9.01361 1.01329 8.49173 1.2125 8.10036 1.58259C7.72955 1.965 7.52209 2.47731 7.52209 3.01065C7.52209 3.54399 7.72955 4.0563 8.10036 4.4387C8.29308 4.62348 8.52076 4.76769 8.76998 4.86282C9.01919 4.95795 9.28488 5.00207 9.55137 4.99258C9.87989 5.00253 10.2046 4.91956 10.4882 4.75316C10.7719 4.58676 11.0032 4.34365 11.1555 4.05166L10.4899 3.71132C10.4024 3.87674 10.2741 4.0169 10.1171 4.11838C9.95779 4.21922 9.77309 4.27247 9.58465 4.27187C9.42423 4.27629 9.26471 4.24644 9.11667 4.18432C8.96863 4.12219 8.83548 4.02919 8.72603 3.91152C8.61244 3.7916 8.5239 3.65014 8.4656 3.49543C8.40731 3.34073 8.38044 3.17591 8.38657 3.01065C8.37642 2.67716 8.49848 2.35323 8.72603 2.10977C8.83581 1.99296 8.96919 1.90099 9.11726 1.84C9.26533 1.779 9.42467 1.7504 9.58465 1.75609Z" fill="white"/>
<path d="M13.9111 1.75697C14.0994 1.75746 14.2838 1.81061 14.4436 1.91045C14.5984 2.00957 14.7246 2.14762 14.8096 2.31085L15.4752 1.97052C15.3266 1.67697 15.0971 1.43232 14.8139 1.26555C14.5308 1.09878 14.2059 1.0169 13.8778 1.0296C13.34 1.01418 12.8182 1.21339 12.4268 1.58348C12.2422 1.77221 12.0968 1.99572 11.9988 2.24111C11.9008 2.4865 11.8523 2.74891 11.856 3.0132C11.8597 3.27749 11.9156 3.53842 12.0204 3.78095C12.1253 4.02347 12.2769 4.24279 12.4667 4.42624C12.6595 4.61102 12.8871 4.75523 13.1363 4.85036C13.3856 4.94548 13.6512 4.9896 13.9177 4.98011C14.2454 4.99038 14.5693 4.90748 14.852 4.74098C15.1347 4.57447 15.3646 4.33117 15.5152 4.03919L14.8496 3.69887C14.7668 3.86547 14.6403 4.00623 14.4835 4.10593C14.3237 4.20577 14.1393 4.25892 13.951 4.25941C13.7906 4.26382 13.6311 4.23398 13.483 4.17185C13.335 4.10972 13.2018 4.01674 13.0924 3.89906C12.9788 3.77915 12.8903 3.63767 12.832 3.48297C12.7737 3.32826 12.7468 3.16344 12.7529 2.99818C12.7428 2.6647 12.8648 2.34076 13.0924 2.0973C13.2022 1.98049 13.3356 1.88852 13.4836 1.82753C13.6317 1.76654 13.791 1.73793 13.951 1.74363" fill="white"/>
<path d="M18.4638 3.41797L17.5386 1.0957H16.3938V4.93277H17.2125V2.25017L18.2841 4.93277H18.6435L19.7218 2.25017V4.93277H20.5405V1.0957H19.3957L18.4638 3.41797Z" fill="white"/>
<path d="M21.7119 4.93292H24.4143V4.21222H22.5239V3.34472H24.3743V2.63069H22.5239V1.81656H24.4143V1.10254H21.7119V4.93292Z" fill="white"/>
<path d="M27.2896 1.08984H25.4991V4.92024H26.3112V3.58561H27.2896C27.4625 3.59466 27.6353 3.56727 27.797 3.5052C27.9586 3.44313 28.1055 3.34776 28.2281 3.22525C28.3409 3.10993 28.4296 2.97322 28.489 2.82312C28.5484 2.67301 28.5774 2.51253 28.5742 2.35107C28.5794 2.18835 28.5514 2.02627 28.4919 1.8748C28.4324 1.72332 28.3426 1.58564 28.2281 1.47022C28.1054 1.34822 27.9584 1.25363 27.7966 1.19268C27.6349 1.13172 27.4621 1.10577 27.2896 1.11653M27.5825 2.72476C27.4694 2.82074 27.3245 2.87075 27.1765 2.86491H26.3112V1.83056H27.1765C27.3245 1.82472 27.4694 1.87473 27.5825 1.9707C27.6326 2.01981 27.6724 2.07845 27.6996 2.1432C27.7268 2.20794 27.7408 2.27748 27.7408 2.34773C27.7408 2.41798 27.7268 2.48753 27.6996 2.55227C27.6724 2.61702 27.6326 2.67566 27.5825 2.72476Z" fill="white"/>
<path d="M29.3064 1.8164H30.4246V4.93277H31.2433V1.8164H32.3548V1.0957H29.3064V1.8164Z" fill="white"/>
<path d="M34.0722 3.57812V1.0957H33.2601V4.93277H34.0455L35.8693 2.36361V4.93277H36.6813V1.0957H35.8427L34.0722 3.57812Z" fill="white"/>
<path d="M37.8528 4.93292H40.5551V4.21222H38.6648V3.34472H40.5152V2.63069H38.6648V1.81656H40.5551V1.10254H37.8528V4.93292Z" fill="white"/>
<path d="M45.7468 2.95744C45.9338 2.91837 46.1012 2.81439 46.2193 2.66382C46.3479 2.49586 46.4138 2.28813 46.4057 2.07658C46.4049 1.95182 46.3791 1.8285 46.3299 1.71389C46.2808 1.59928 46.2092 1.4957 46.1195 1.40926C45.8964 1.21185 45.6045 1.11107 45.3075 1.12899H43.3107V4.95939H45.3873C45.5364 4.96699 45.6854 4.94496 45.8259 4.89457C45.9664 4.84417 46.0956 4.76641 46.206 4.66577C46.3025 4.56875 46.3782 4.45302 46.4286 4.32566C46.4789 4.1983 46.5029 4.06199 46.4989 3.92505C46.5015 3.69769 46.4263 3.47629 46.2859 3.29777C46.2236 3.21288 46.145 3.14137 46.0547 3.0875C45.9644 3.03363 45.8642 2.99848 45.7601 2.98413M44.1227 1.82968H45.1411C45.2602 1.8249 45.3767 1.86542 45.4672 1.94312C45.5075 1.98198 45.5394 2.02864 45.5612 2.08026C45.5829 2.13187 45.594 2.18738 45.5937 2.24341C45.5965 2.29916 45.5872 2.35487 45.5666 2.4067C45.5459 2.45854 45.5143 2.50527 45.4739 2.5437C45.4285 2.58359 45.3758 2.61414 45.3187 2.63361C45.2616 2.65307 45.2013 2.66108 45.1411 2.65715H44.1027L44.1227 1.82968ZM45.5338 4.13191C45.4337 4.21651 45.3051 4.25949 45.1744 4.25203H44.1027V3.3645H45.1544C45.2197 3.36027 45.2852 3.36931 45.347 3.3911C45.4088 3.41289 45.4655 3.44697 45.5138 3.49129C45.5565 3.53287 45.5903 3.58269 45.6132 3.63775C45.636 3.69281 45.6475 3.75196 45.6469 3.8116C45.6497 3.87153 45.6391 3.93132 45.6161 3.98669C45.5931 4.04206 45.5582 4.09165 45.5138 4.13191" fill="white"/>
<path d="M48.5689 1.08984L47.078 4.93358H48.0098L48.2495 4.26626H49.8868L50.1265 4.93358H51.0716L49.5873 1.08984H48.5689ZM48.4824 3.55224L49.0748 1.90397L49.6738 3.55224H48.4824Z" fill="white"/>
<path d="M55.9304 4.21222H54.719V1.10254H53.9003V4.21222H52.6823V1.10254H51.8702V4.93292H56.7491V1.10254H55.9304V4.21222Z" fill="white"/>
<path d="M58.7326 3.57812V1.0957H57.9139V4.93277H58.706L60.5231 2.36361V4.93277H61.3418V1.0957H60.5031L58.7326 3.57812Z" fill="white"/>
<path d="M65.9344 1.10254H64.956L64.0841 2.41047L63.2121 1.10254H62.2403L63.5449 2.96434L62.1538 4.93292H63.1256L64.0841 3.53157L65.0425 4.93292H66.0209L64.6298 2.96434L65.9344 1.10254Z" fill="white"/>
<path d="M70.2675 1.08984H68.4771V4.92024H69.2891V3.58561H70.2675C70.4404 3.59466 70.6132 3.56727 70.7749 3.5052C70.9365 3.44313 71.0834 3.34776 71.206 3.22525C71.3188 3.10993 71.4075 2.97322 71.4669 2.82312C71.5263 2.67301 71.5553 2.51253 71.5521 2.35107C71.5574 2.18835 71.5293 2.02627 71.4698 1.8748C71.4103 1.72332 71.3205 1.58564 71.206 1.47022C71.0833 1.34822 70.9363 1.25363 70.7745 1.19268C70.6128 1.13172 70.44 1.10577 70.2675 1.11653M70.5604 2.72476C70.4473 2.82074 70.3024 2.87075 70.1544 2.86491H69.2891V1.83056H70.1544C70.3024 1.82472 70.4473 1.87473 70.5604 1.9707C70.6105 2.01981 70.6503 2.07845 70.6775 2.1432C70.7047 2.20794 70.7187 2.27748 70.7187 2.34773C70.7187 2.41798 70.7047 2.48753 70.6775 2.55227C70.6503 2.61702 70.6105 2.67566 70.5604 2.72476Z" fill="white"/>
<path d="M72.444 4.93292H75.153V4.21222H73.256V3.34472H75.113V2.63069H73.256V1.81656H75.153V1.10254H72.444V4.93292Z" fill="white"/>
<path d="M80.2914 4.21222H79.08V1.10254H78.2613V4.21222H77.0499V1.10254H76.2312V4.93292H81.1101V1.10254H80.2914V4.21222Z" fill="white"/>
<path d="M82.2816 4.93292H84.984V4.21222H83.0936V3.34472H84.9507V2.63069H83.0936V1.81656H84.984V1.10254H82.2816V4.93292Z" fill="white"/>
<path d="M88.6913 2.60384H86.8875V1.0957H86.0688V4.93277H86.8875V3.32454H88.6913V4.93277H89.51V1.0957H88.6913V2.60384Z" fill="white"/>
<path d="M91.4868 3.57812V1.0957H90.6748V4.93277H91.4602L93.284 2.36361V4.93277H94.096V1.0957H93.2573L91.4868 3.57812Z" fill="white"/>
<path d="M96.998 0.922526C97.1944 0.928742 97.3892 0.885597 97.5648 0.797017C97.7403 0.708438 97.891 0.577241 98.003 0.41537L97.6835 0.148438C97.6093 0.25691 97.51 0.345752 97.3941 0.407346C97.2782 0.46894 97.1491 0.501452 97.0179 0.502114C96.8866 0.502021 96.7573 0.469753 96.6413 0.40811C96.5253 0.346466 96.4261 0.257318 96.3523 0.148438L96.0328 0.41537C96.1461 0.575946 96.297 0.706164 96.4723 0.794594C96.6475 0.883024 96.8418 0.926955 97.0379 0.922526" fill="white"/>
<path d="M96.0795 3.57812V1.0957H95.2675V4.93277H96.0529L97.8766 2.36361V4.93277H98.6886V1.0957H97.85L96.0795 3.57812Z" fill="white"/>
</svg>
