<svg width="24" height="25" viewBox="0 0 24 25" fill="none" xmlns="http://www.w3.org/2000/svg">
<path d="M13.4185 3.17464L13.6697 2.73954L11.3649 1.40887C10.245 0.762282 8.81367 1.1458 8.16709 2.26572L6.18401 5.70051L8.39105 6.97475C8.70445 7.15569 8.81186 7.55654 8.63092 7.86994C8.44998 8.18334 8.04913 8.29074 7.73573 8.1098L5.52869 6.83556L0.314141 15.8674C-0.332444 16.9873 0.0510727 18.4186 1.17099 19.0652L3.47578 20.3959L3.72698 19.9608C4.24178 19.0691 5.38165 18.7637 6.27329 19.2785C7.16494 19.7933 7.47037 20.9332 6.95557 21.8248L6.70437 22.2599L9.00915 23.5906C10.1291 24.2372 11.5604 23.8537 12.207 22.7337L17.4211 13.7025L15.2141 12.4283C14.9007 12.2473 14.7933 11.8465 14.9742 11.5331C15.1552 11.2197 15.556 11.1123 15.8694 11.2932L18.0765 12.5675L20.0595 9.13267C20.7061 8.01275 20.3226 6.58145 19.2027 5.93486L16.8979 4.60419L16.6467 5.0393C16.1319 5.93094 14.992 6.23637 14.1004 5.72158C13.2091 5.20616 12.9037 4.06629 13.4185 3.17464ZM13.2725 9.79137C13.5815 9.96977 13.6845 10.3739 13.5061 10.6829C13.324 10.9982 12.9265 11.1042 12.6175 10.9258L10.3348 9.60787C10.0258 9.42947 9.91888 9.03224 10.1009 8.71695C10.2793 8.40797 10.6808 8.29505 10.9898 8.47345L13.2725 9.79137Z" fill="#B6B7F9"/>
<path d="M13.4185 3.17464L13.6697 2.73954L11.3649 1.40887C10.245 0.762282 8.81367 1.1458 8.16709 2.26572L6.18401 5.70051L8.39105 6.97475C8.70445 7.15569 8.81186 7.55654 8.63092 7.86994C8.44998 8.18334 8.04913 8.29074 7.73573 8.1098L5.52869 6.83556L0.314141 15.8674C-0.332444 16.9873 0.0510727 18.4186 1.17099 19.0652L3.47578 20.3959L3.72698 19.9608C4.24178 19.0691 5.38165 18.7637 6.27329 19.2785C7.16494 19.7933 7.47037 20.9332 6.95557 21.8248L6.70437 22.2599L9.00915 23.5906C10.1291 24.2372 11.5604 23.8537 12.207 22.7337L17.4211 13.7025L15.2141 12.4283C14.9007 12.2473 14.7933 11.8465 14.9742 11.5331C15.1552 11.2197 15.556 11.1123 15.8694 11.2932L18.0765 12.5675L20.0595 9.13267C20.7061 8.01275 20.3226 6.58145 19.2027 5.93486L16.8979 4.60419L16.6467 5.0393C16.1319 5.93094 14.992 6.23637 14.1004 5.72158C13.2091 5.20616 12.9037 4.06629 13.4185 3.17464ZM13.2725 9.79137C13.5815 9.96977 13.6845 10.3739 13.5061 10.6829C13.324 10.9982 12.9265 11.1042 12.6175 10.9258L10.3348 9.60787C10.0258 9.42947 9.91888 9.03224 10.1009 8.71695C10.2793 8.40797 10.6808 8.29505 10.9898 8.47345L13.2725 9.79137Z" fill="url(#paint0_linear_2147_2251)"/>
<defs>
<linearGradient id="paint0_linear_2147_2251" x1="3.40996" y1="-0.412868" x2="17.185" y2="20.4629" gradientUnits="userSpaceOnUse">
<stop stop-color="#8256FA"/>
<stop offset="1" stop-color="#4DB0F9"/>
</linearGradient>
</defs>
</svg>
