<svg width="20" height="21" viewBox="0 0 20 21" fill="none" xmlns="http://www.w3.org/2000/svg">
<g clip-path="url(#clip0_2147_2242)">
<path d="M9.84332 10.1307C11.165 10.1307 12.3095 9.65136 13.2446 8.70571C14.1797 7.76021 14.6537 6.60334 14.6537 5.26683C14.6537 3.93078 14.1797 2.77376 13.2444 1.82796C12.3092 0.882615 11.1648 0.40332 9.84332 0.40332C8.52149 0.40332 7.37733 0.882615 6.44222 1.82811C5.50711 2.7736 5.03293 3.93063 5.03293 5.26683C5.03293 6.60334 5.50711 7.76037 6.44237 8.70586C7.37763 9.6512 8.52195 10.1307 9.84332 10.1307Z" fill="#B6B7F9"/>
<path d="M9.84332 10.1307C11.165 10.1307 12.3095 9.65136 13.2446 8.70571C14.1797 7.76021 14.6537 6.60334 14.6537 5.26683C14.6537 3.93078 14.1797 2.77376 13.2444 1.82796C12.3092 0.882615 11.1648 0.40332 9.84332 0.40332C8.52149 0.40332 7.37733 0.882615 6.44222 1.82811C5.50711 2.7736 5.03293 3.93063 5.03293 5.26683C5.03293 6.60334 5.50711 7.76037 6.44237 8.70586C7.37763 9.6512 8.52195 10.1307 9.84332 10.1307Z" fill="url(#paint0_linear_2147_2242)"/>
<path d="M18.2606 15.9312C18.2336 15.5377 18.179 15.1085 18.0987 14.6552C18.0177 14.1986 17.9133 13.7669 17.7884 13.3723C17.6593 12.9645 17.4838 12.5618 17.2668 12.1759C17.0416 11.7753 16.7771 11.4265 16.4802 11.1395C16.1699 10.8392 15.7898 10.5978 15.3504 10.4217C14.9125 10.2465 14.4272 10.1578 13.908 10.1578C13.7042 10.1578 13.507 10.2424 13.1262 10.493C12.8919 10.6476 12.6178 10.8263 12.3118 11.0239C12.0502 11.1925 11.6958 11.3504 11.258 11.4934C10.8309 11.6331 10.3972 11.704 9.96923 11.704C9.54121 11.704 9.10771 11.6331 8.68016 11.4934C8.24285 11.3506 7.88843 11.1926 7.62711 11.0241C7.32404 10.8283 7.04977 10.6496 6.81192 10.4929C6.4316 10.2422 6.23428 10.1576 6.0304 10.1576C5.51112 10.1576 5.02597 10.2465 4.5882 10.4219C4.14906 10.5976 3.7689 10.8391 3.45821 11.1396C3.16154 11.4268 2.89687 11.7755 2.67197 12.1759C2.45514 12.5618 2.27961 12.9644 2.1504 13.3725C2.02561 13.7671 1.92123 14.1986 1.84017 14.6552C1.75987 15.1079 1.70532 15.5373 1.67835 15.9317C1.65184 16.3181 1.63843 16.7191 1.63843 17.1241C1.63843 18.1782 1.96984 19.0316 2.62336 19.661C3.26881 20.282 4.12286 20.5971 5.16143 20.5971H14.7779C15.8165 20.5971 16.6703 20.2821 17.3159 19.661C17.9695 19.0321 18.3009 18.1785 18.3009 17.124C18.3008 16.7171 18.2872 16.3158 18.2606 15.9312Z" fill="#B6B7F9"/>
<path d="M18.2606 15.9312C18.2336 15.5377 18.179 15.1085 18.0987 14.6552C18.0177 14.1986 17.9133 13.7669 17.7884 13.3723C17.6593 12.9645 17.4838 12.5618 17.2668 12.1759C17.0416 11.7753 16.7771 11.4265 16.4802 11.1395C16.1699 10.8392 15.7898 10.5978 15.3504 10.4217C14.9125 10.2465 14.4272 10.1578 13.908 10.1578C13.7042 10.1578 13.507 10.2424 13.1262 10.493C12.8919 10.6476 12.6178 10.8263 12.3118 11.0239C12.0502 11.1925 11.6958 11.3504 11.258 11.4934C10.8309 11.6331 10.3972 11.704 9.96923 11.704C9.54121 11.704 9.10771 11.6331 8.68016 11.4934C8.24285 11.3506 7.88843 11.1926 7.62711 11.0241C7.32404 10.8283 7.04977 10.6496 6.81192 10.4929C6.4316 10.2422 6.23428 10.1576 6.0304 10.1576C5.51112 10.1576 5.02597 10.2465 4.5882 10.4219C4.14906 10.5976 3.7689 10.8391 3.45821 11.1396C3.16154 11.4268 2.89687 11.7755 2.67197 12.1759C2.45514 12.5618 2.27961 12.9644 2.1504 13.3725C2.02561 13.7671 1.92123 14.1986 1.84017 14.6552C1.75987 15.1079 1.70532 15.5373 1.67835 15.9317C1.65184 16.3181 1.63843 16.7191 1.63843 17.1241C1.63843 18.1782 1.96984 19.0316 2.62336 19.661C3.26881 20.282 4.12286 20.5971 5.16143 20.5971H14.7779C15.8165 20.5971 16.6703 20.2821 17.3159 19.661C17.9695 19.0321 18.3009 18.1785 18.3009 17.124C18.3008 16.7171 18.2872 16.3158 18.2606 15.9312Z" fill="url(#paint1_linear_2147_2242)"/>
</g>
<defs>
<linearGradient id="paint0_linear_2147_2242" x1="4.42724" y1="-0.931356" x2="16.9744" y2="16.6347" gradientUnits="userSpaceOnUse">
<stop stop-color="#8256FA"/>
<stop offset="1" stop-color="#4DB0F9"/>
</linearGradient>
<linearGradient id="paint1_linear_2147_2242" x1="4.42724" y1="-0.931356" x2="16.9744" y2="16.6347" gradientUnits="userSpaceOnUse">
<stop stop-color="#8256FA"/>
<stop offset="1" stop-color="#4DB0F9"/>
</linearGradient>
<clipPath id="clip0_2147_2242">
<rect width="19.9717" height="20.1936" fill="white" transform="translate(0 0.40332)"/>
</clipPath>
</defs>
</svg>
